<?xml version="1.0" encoding="UTF-8"?>

<svg version="1.1" xmlns="http://www.w3.org/2000/svg" xmlns:xlink="http://www.w3.org/1999/xlink">

    <symbol viewBox="0 0 16 8" id="dropdown-arrow" xmlns="http://www.w3.org/2000/svg">
        <path fill-rule="evenodd" clip-rule="evenodd" d="M0.240731 0.349227C0.600153 -0.0700991 1.23145 -0.118661 1.65078 0.240762L7.99999 5.68294L14.3492 0.240762C14.7685 -0.118661 15.3998 -0.0700991 15.7592 0.349227C16.1187 0.768552 16.0701 1.39985 15.6508 1.75927L8.65078 7.75928C8.27629 8.08027 7.72369 8.08027 7.3492 7.75928L0.349196 1.75927C-0.0701297 1.39985 -0.118691 0.768552 0.240731 0.349227Z" fill="currentColor"/>
    </symbol>

    <symbol viewBox="0 0 32 30" id="messages" xmlns="http://www.w3.org/2000/svg">
        <path fill-rule="evenodd" clip-rule="evenodd" d="M28.3992 7.95425C32.6228 11.8262 33.0955 17.7703 30.0033 22.1088L31.8288 27.8404C32.0216 28.4459 31.5681 29.0625 30.9354 29.0625C30.7907 29.0625 30.6451 29.0291 30.5107 28.9607L24.9587 26.1376C23.3568 26.8256 21.5872 27.1875 19.8113 27.1875C16.3947 27.1875 13.0553 25.8871 10.6401 23.3473C9.38813 23.2008 8.17912 22.8786 7.039 22.3877L1.48731 25.2106C1.151 25.3817 0.743937 25.3346 0.455375 25.0893C0.167312 24.8445 0.0544375 24.4507 0.169188 24.0904L1.99475 18.3588C0.687937 16.5252 0 14.4022 0 12.1875C0 5.87081 5.56556 0.9375 12.1868 0.9375C15.6661 0.9375 18.9876 2.31487 21.2996 4.71644C21.3181 4.73575 21.3351 4.75594 21.3516 4.77631C24.0092 5.08387 26.4694 6.18519 28.3992 7.95425ZM6.59031 20.5125C6.84937 20.3808 7.15481 20.3766 7.41738 20.5013C7.9205 20.7402 8.44106 20.9393 8.97556 21.0985C8.09275 19.5229 7.6245 17.7642 7.6245 15.9375C7.6245 10.0642 12.4471 5.36088 18.4689 4.75537C16.6808 3.50619 14.4765 2.8125 12.1868 2.8125C6.50075 2.8125 1.87487 7.01813 1.87487 12.1875C1.87487 14.1438 2.53119 16.0179 3.77281 17.6073C3.96356 17.8513 4.02138 18.1738 3.92738 18.469L2.63613 22.5231L6.59031 20.5125ZM24.5806 24.2513C24.8467 24.1248 25.1524 24.1326 25.4077 24.2624L29.3618 26.2731L28.0706 22.2189C27.9766 21.9237 28.0344 21.6012 28.2251 21.3572C29.4668 19.7679 30.1231 17.8938 30.1231 15.9375C30.1231 10.7681 25.4972 6.5625 19.8113 6.5625C14.1253 6.5625 9.49938 10.7681 9.49938 15.9375C9.49938 21.1069 14.1253 25.3125 19.8113 25.3125C21.4699 25.3125 23.1191 24.9456 24.5806 24.2513ZM16.9365 15.9375C16.9365 16.4553 16.5168 16.875 15.999 16.875C15.4812 16.875 15.0615 16.4553 15.0615 15.9375C15.0615 15.4197 15.4812 15 15.999 15C16.5168 15 16.9365 15.4197 16.9365 15.9375ZM19.7488 16.875C20.2666 16.875 20.6863 16.4553 20.6863 15.9375C20.6863 15.4197 20.2666 15 19.7488 15C19.231 15 18.8113 15.4197 18.8113 15.9375C18.8113 16.4553 19.231 16.875 19.7488 16.875ZM24.4361 15.9375C24.4361 16.4553 24.0163 16.875 23.4986 16.875C22.9808 16.875 22.5611 16.4553 22.5611 15.9375C22.5611 15.4197 22.9808 15 23.4986 15C24.0163 15 24.4361 15.4197 24.4361 15.9375Z" fill="currentColor"/>
    </symbol>

    <symbol viewBox="0 0 27 27" id="profile" xmlns="http://www.w3.org/2000/svg">
        <path d="M23.046 17.454C21.5756 15.9837 19.8254 14.8952 17.9159 14.2363C19.9611 12.8277 21.3047 10.4703 21.3047 7.80469C21.3047 3.50119 17.8035 0 13.5 0C9.19651 0 5.69531 3.50119 5.69531 7.80469C5.69531 10.4703 7.03893 12.8277 9.08413 14.2363C7.17462 14.8952 5.42447 15.9837 3.95408 17.454C1.40426 20.0039 0 23.394 0 27H2.10938C2.10938 20.7192 7.21918 15.6094 13.5 15.6094C19.7808 15.6094 24.8906 20.7192 24.8906 27H27C27 23.394 25.5957 20.0039 23.046 17.454ZM13.5 13.5C10.3596 13.5 7.80469 10.9451 7.80469 7.80469C7.80469 4.66425 10.3596 2.10938 13.5 2.10938C16.6404 2.10938 19.1953 4.66425 19.1953 7.80469C19.1953 10.9451 16.6404 13.5 13.5 13.5Z" fill="currentColor"/>
    </symbol>

    <symbol viewBox="0 0 16 16" id="plus" xmlns="http://www.w3.org/2000/svg">
        <path fill-rule="evenodd" clip-rule="evenodd" d="M14.4531 6.95312H9.04688V1.54688C9.04688 0.968694 8.57818 0.5 8 0.5C7.42182 0.5 6.95312 0.968694 6.95312 1.54688V6.95312H1.54688C0.968694 6.95312 0.5 7.42182 0.5 8C0.5 8.57818 0.968694 9.04688 1.54688 9.04688H6.95312V14.4531C6.95312 15.0313 7.42182 15.5 8 15.5C8.57818 15.5 9.04688 15.0313 9.04688 14.4531V9.04688H14.4531C15.0313 9.04688 15.5 8.57818 15.5 8C15.5 7.42182 15.0313 6.95312 14.4531 6.95312Z" fill="currentColor"/>
    </symbol>

    <symbol viewBox="0 0 24 30" id="location" xmlns="http://www.w3.org/2000/svg">
        <path d="M12 0C5.7975 0 0.75 5.0825 0.75 11.3312C0.75 20.21 10.9425 29.3775 11.3763 29.7625C11.555 29.9212 11.7775 30 12 30C12.2225 30 12.445 29.9213 12.6237 29.7638C13.0575 29.3775 23.25 20.21 23.25 11.3312C23.25 5.0825 18.2025 0 12 0ZM12 17.5C8.55375 17.5 5.75 14.6962 5.75 11.25C5.75 7.80375 8.55375 5 12 5C15.4462 5 18.25 7.80375 18.25 11.25C18.25 14.6962 15.4462 17.5 12 17.5Z" fill="currentColor"/>
    </symbol>

    <symbol viewBox="0 0 22 22" id="search" xmlns="http://www.w3.org/2000/svg">
        <path d="M17.8759 8.93619C17.8759 10.9082 17.2356 12.7298 16.157 14.2077L21.5971 19.651C22.1343 20.1881 22.1343 21.0602 21.5971 21.5972C21.06 22.1343 20.1877 22.1343 19.6506 21.5972L14.2105 16.1539C12.7323 17.2365 10.9103 17.8724 8.93794 17.8724C4.00059 17.8724 0 13.8726 0 8.93619C0 3.9998 4.00059 0 8.93794 0C13.8753 0 17.8759 3.9998 17.8759 8.93619ZM8.93794 15.1228C9.75053 15.1228 10.5552 14.9628 11.3059 14.6519C12.0566 14.341 12.7388 13.8853 13.3134 13.3108C13.888 12.7363 14.3438 12.0543 14.6547 11.3037C14.9657 10.5531 15.1257 9.74863 15.1257 8.93619C15.1257 8.12376 14.9657 7.31928 14.6547 6.56868C14.3438 5.81809 13.888 5.13609 13.3134 4.56161C12.7388 3.98713 12.0566 3.53143 11.3059 3.22052C10.5552 2.90962 9.75053 2.7496 8.93794 2.7496C8.12534 2.7496 7.32071 2.90962 6.56997 3.22052C5.81923 3.53143 5.13709 3.98713 4.5625 4.56161C3.98791 5.13609 3.53212 5.81809 3.22115 6.56868C2.91019 7.31928 2.75013 8.12376 2.75013 8.93619C2.75013 9.74863 2.91019 10.5531 3.22115 11.3037C3.53212 12.0543 3.98791 12.7363 4.5625 13.3108C5.13709 13.8853 5.81923 14.341 6.56997 14.6519C7.32071 14.9628 8.12534 15.1228 8.93794 15.1228Z" fill="currentColor"/>
    </symbol>

    <symbol viewBox="0 0 8 16" id="arrow-right" xmlns="http://www.w3.org/2000/svg">
        <path fill-rule="evenodd" clip-rule="evenodd" d="M0.349227 15.7593C-0.0700992 15.3998 -0.118661 14.7685 0.240761 14.3492L5.68294 8L0.240761 1.65079C-0.118661 1.23146 -0.0700998 0.600163 0.349226 0.240741C0.768552 -0.118681 1.39985 -0.0701199 1.75927 0.349206L7.75928 7.34921C8.08027 7.7237 8.08027 8.2763 7.75928 8.65079L1.75927 15.6508C1.39985 16.0701 0.768552 16.1187 0.349227 15.7593Z" fill="currentColor"/>
    </symbol>

    <symbol viewBox="0 0 8 16" id="arrow-left" xmlns="http://www.w3.org/2000/svg">
        <path fill-rule="evenodd" clip-rule="evenodd" d="M7.65077 0.240762C8.0701 0.600184 8.11866 1.23148 7.75924 1.65081L2.31706 8.00002L7.75924 14.3492C8.11866 14.7686 8.0701 15.3999 7.65077 15.7593C7.23145 16.1187 6.60015 16.0701 6.24073 15.6508L0.240725 8.65081C-0.0802666 8.27632 -0.0802666 7.72372 0.240725 7.34923L6.24073 0.349227C6.60015 -0.0700991 7.23145 -0.118661 7.65077 0.240762Z" fill="currentColor"/>
    </symbol>

    <symbol viewBox="0 0 16 8" id="arrow-top" xmlns="http://www.w3.org/2000/svg">
        <path fill-rule="evenodd" clip-rule="evenodd" d="M0.240762 7.65077C0.600184 8.0701 1.23148 8.11866 1.65081 7.75924L8.00002 2.31706L14.3492 7.75924C14.7686 8.11866 15.3999 8.0701 15.7593 7.65077C16.1187 7.23145 16.0701 6.60015 15.6508 6.24073L8.65081 0.240725C8.27632 -0.0802665 7.72372 -0.0802665 7.34923 0.240725L0.349227 6.24073C-0.0700991 6.60015 -0.118661 7.23145 0.240762 7.65077Z" fill="currentColor"/>
    </symbol>

    <symbol viewBox="0 0 70 35" id="logo-mobile" xmlns="http://www.w3.org/2000/svg">
        <path d="M29.5006 15.0938H25.3585V0.227806H27.0103C27.4525 0.227806 28.1199 0.210893 29.0125 0.177069C29.9052 0.134788 30.6393 0.113647 31.215 0.113647C32.8334 0.113647 34.0598 0.549143 34.8941 1.42013C35.7283 2.29112 36.1454 3.59761 36.1454 5.33959C36.1454 6.38816 36.0078 7.34371 35.7325 8.20624C35.4655 9.06032 35.1026 9.76219 34.6438 10.3118C34.1849 10.8615 33.6635 11.2843 33.0795 11.5803C32.4956 11.8762 31.8782 12.0242 31.2275 12.0242C31.1441 12.0242 31.0565 12.0242 30.9647 12.0242C30.8813 12.0242 30.802 12.0242 30.7269 12.0242C30.6602 12.0158 30.5768 12.0115 30.4767 12.0115C30.3849 12.0031 30.3098 11.9989 30.2514 11.9989C30.2014 11.9904 30.1263 11.9862 30.0262 11.9862C29.9344 11.9777 29.8718 11.9735 29.8385 11.9735C29.8051 11.9735 29.7425 11.9693 29.6507 11.9608C29.559 11.9523 29.5089 11.9481 29.5006 11.9481V15.0938ZM32.0409 4.78148C32.0409 4.15572 31.874 3.64835 31.5403 3.25936C31.2066 2.87037 30.7269 2.67588 30.1012 2.67588H29.5006V9.27173H29.9636C30.6227 9.27173 31.1316 9.04764 31.4903 8.59946C31.8574 8.15128 32.0409 7.50438 32.0409 6.65876V4.78148Z" fill="#29140C"/>
        <path d="M42.8466 8.53604C42.8466 7.4621 42.7924 6.70104 42.6839 6.25286C42.5755 5.80468 42.3753 5.58059 42.0833 5.58059C41.833 5.58059 41.6286 5.6271 41.4701 5.72012C41.3116 5.80468 41.1948 5.94421 41.1197 6.1387C41.0446 6.32474 40.9946 6.51923 40.9695 6.72218C40.9529 6.91667 40.9445 7.16613 40.9445 7.47056V8.53604H42.8466ZM41.8455 15.3602C40.9111 15.3602 40.0977 15.2164 39.4053 14.9289C38.7212 14.6414 38.1789 14.2398 37.7785 13.7239C37.3864 13.2081 37.0986 12.6288 36.915 11.9862C36.7315 11.335 36.6397 10.612 36.6397 9.81716C36.6397 7.92296 37.1153 6.48963 38.0663 5.51717C39.0174 4.5447 40.348 4.05847 42.0582 4.05847C43.7017 4.05847 44.878 4.45169 45.5872 5.23811C46.2963 6.01609 46.6508 7.27183 46.6508 9.00536V10.4133H40.932V10.6543C40.932 11.1532 40.982 11.5634 41.0822 11.8847C41.1906 12.206 41.3449 12.4428 41.5452 12.595C41.7454 12.7472 41.9498 12.8487 42.1583 12.8994C42.3669 12.9502 42.6214 12.9756 42.9217 12.9756C43.2137 12.9756 43.5265 12.9375 43.8602 12.8614C44.2023 12.7853 44.5443 12.6669 44.8864 12.5062C45.2368 12.3456 45.5288 12.1553 45.7623 11.9354L46.5007 13.2166C46.192 13.7239 45.7373 14.151 45.1366 14.4977C44.5443 14.8359 43.9729 15.0642 43.4223 15.1826C42.8716 15.301 42.3461 15.3602 41.8455 15.3602Z" fill="#29140C"/>
        <path d="M50.9347 15.3602C49.8084 15.3602 49.0201 15.0177 48.5695 14.3328C48.1274 13.6478 47.9063 12.4893 47.9063 10.8573V6.5446H47.0429V4.78148L48.5195 4.31216L49.7959 1.35671H51.9984V4.31216H54.0506V6.5446H51.9608V11.2632C51.9608 11.9397 52.0568 12.3878 52.2486 12.6077C52.4405 12.8276 52.7367 12.9375 53.1371 12.9375C53.3123 12.9375 53.4708 12.9164 53.6126 12.8741C53.7545 12.8318 53.8713 12.7726 53.963 12.6965V14.4216C53.8379 14.5484 53.6752 14.6753 53.475 14.8021C53.2748 14.9205 52.9411 15.0431 52.4739 15.1699C52.015 15.2968 51.502 15.3602 50.9347 15.3602Z" fill="#29140C"/>
        <path d="M58.4466 15.3602C57.6624 15.3602 56.8699 15.2291 56.069 14.967C55.2681 14.6964 54.755 14.4343 54.5298 14.1806L54.8551 12.1384C55.1388 12.4174 55.6101 12.6584 56.2692 12.8614C56.9366 13.0643 57.6165 13.1658 58.309 13.1658C58.8095 13.1658 59.1516 13.1024 59.3351 12.9756C59.527 12.8487 59.6229 12.6711 59.6229 12.4428C59.6229 12.2229 59.4561 12.0285 59.1224 11.8593C58.7887 11.6818 58.2464 11.4788 57.4956 11.2505C55.5517 10.6585 54.5798 9.4324 54.5798 7.57203C54.5798 6.81097 54.7967 6.15984 55.2305 5.61864C55.6644 5.06899 56.2191 4.67155 56.8949 4.42632C57.5706 4.18109 58.3256 4.05847 59.1599 4.05847C60.5865 4.05847 61.6376 4.32484 62.3134 4.85759C62.4636 5.00134 62.5386 5.07322 62.5386 5.07322L61.988 6.88708C61.4374 6.33742 60.6782 6.0626 59.7105 6.0626C58.918 6.0626 58.5217 6.29937 58.5217 6.77292C58.5217 6.90822 58.5509 7.02238 58.6093 7.11539C58.6677 7.19996 58.7636 7.27606 58.8971 7.34371C59.0389 7.40291 59.1766 7.45364 59.3101 7.49592C59.4435 7.52975 59.6312 7.58048 59.8732 7.64813C60.1151 7.70733 60.3237 7.7623 60.4989 7.81303C61.475 8.14283 62.1841 8.60792 62.6262 9.20831C63.0684 9.8087 63.2895 10.5571 63.2895 11.4534C63.2895 14.0579 61.6752 15.3602 58.4466 15.3602Z" fill="#29140C"/>
        <path d="M13.8441 15.4183C12.2824 14.9971 10.6545 15.2199 9.25611 16.043C6.38999 17.7337 5.42045 21.5009 7.09489 24.4406L7.52137 25.1894C8.12455 26.2483 9.20471 26.8911 10.4109 26.9088C11.617 26.9265 12.7151 26.3157 13.3483 25.2749C13.7333 24.6419 14.4011 24.2511 15.1345 24.2296C15.7122 24.2127 16.2587 24.0528 16.7362 23.7733C17.2553 23.4694 17.6929 23.0242 17.9992 22.468C18.5871 21.4004 18.5781 20.1307 17.9749 19.0718L17.519 18.2714C16.7109 16.8528 15.4059 15.8396 13.8441 15.4183Z" fill="#FFCA42"/>
        <path d="M2.94179 17.9676L2.54023 17.9248C1.27907 17.7904 0.145225 18.7211 0.0127227 19.9994C-0.119815 21.2777 0.798316 22.427 2.05949 22.5614L2.46104 22.6042C2.96173 22.6575 3.44235 22.543 3.84825 22.3054C4.46466 21.9447 4.90867 21.3003 4.98862 20.5295C5.12107 19.2512 4.20291 18.1019 2.94179 17.9676Z" fill="#FFCA42"/>
        <path d="M17.3224 9.93362C16.1639 9.41082 14.8017 9.94079 14.286 11.115L14.1218 11.4889C13.6061 12.6631 14.1289 14.0438 15.2874 14.5666C15.986 14.8819 16.7584 14.8143 17.3749 14.4536C17.7807 14.2161 18.1189 13.8513 18.3237 13.3852L18.4879 13.0113C19.0037 11.8371 18.4808 10.4564 17.3224 9.93362Z" fill="#FFCA42"/>
        <path d="M6.66942 13.0573L5.87085 12.3284C5.4144 11.9118 4.82514 11.7003 4.21165 11.7329C3.5982 11.7654 3.03396 12.0383 2.62298 12.501C2.21194 12.9637 2.00324 13.561 2.03536 14.1828C2.06748 14.8046 2.33661 15.3765 2.79313 15.7932L3.5917 16.522C4.35029 17.2143 5.44225 17.2992 6.28196 16.8078C6.48538 16.6887 6.67417 16.5357 6.83963 16.3494C7.25063 15.8868 7.45935 15.2894 7.42723 14.6676C7.39504 14.0458 7.12591 13.4739 6.66942 13.0573Z" fill="#FFCA42"/>
        <path d="M9.59367 8.44601C8.35326 8.71326 7.5587 9.95356 7.82237 11.2108L8.04577 12.2762C8.17349 12.8852 8.52754 13.4074 9.0427 13.7466C9.55789 14.0857 10.1726 14.2012 10.7734 14.0717C11.0154 14.0196 11.2403 13.9304 11.4438 13.8113C12.2835 13.32 12.757 12.3189 12.5448 11.3069L12.3214 10.2415C12.0577 8.98421 10.8341 8.17879 9.59367 8.44601Z" fill="#FFCA42"/>
        <path d="M29.7756 34.7318H25.7462V20.2863L25 19.8264V18.6386L28.9921 18H29.8005V25.5229L29.9497 25.3313C30.0492 25.1951 30.1943 25.0333 30.385 24.846C30.584 24.6587 30.8037 24.4756 31.0441 24.2968C31.2846 24.1094 31.5706 23.9519 31.9023 23.8242C32.2422 23.688 32.5738 23.6198 32.8972 23.6198C34.033 23.6198 34.8331 23.9391 35.2974 24.5778C35.77 25.2164 36.0063 26.285 36.0063 27.7836C36.0063 27.8347 36.0063 27.9113 36.0063 28.0135C35.998 28.1157 35.9939 28.1966 35.9939 28.2562V34.7318H31.8898V27.8858C31.9147 27.0854 31.5831 26.6852 30.8949 26.6852C30.8286 26.6852 30.7622 26.6895 30.6959 26.698C30.6379 26.7065 30.5757 26.7278 30.5094 26.7618C30.443 26.7959 30.3891 26.8214 30.3477 26.8385C30.3145 26.8555 30.2606 26.8896 30.186 26.9406C30.1197 26.9917 30.0741 27.0258 30.0492 27.0428C30.0326 27.0599 29.9829 27.1024 29.9 27.1705C29.8254 27.2387 29.7839 27.277 29.7756 27.2855V34.7318Z" fill="#29140C"/>
        <path d="M43.1271 28.1285C43.1271 27.0471 43.0732 26.2807 42.9654 25.8295C42.8576 25.3782 42.6586 25.1525 42.3684 25.1525C42.1197 25.1525 41.9166 25.1993 41.7591 25.293C41.6015 25.3782 41.4854 25.5187 41.4108 25.7145C41.3362 25.9018 41.2865 26.0977 41.2616 26.302C41.245 26.4979 41.2367 26.7491 41.2367 27.0556V28.1285H43.1271ZM42.1321 35C41.2036 35 40.3952 34.8552 39.707 34.5657C39.0272 34.2762 38.4883 33.8718 38.0903 33.3524C37.7006 32.833 37.4146 32.2497 37.2322 31.6026C37.0498 30.9469 36.9586 30.2189 36.9586 29.4185C36.9586 27.5111 37.4312 26.0679 38.3763 25.0887C39.3215 24.1094 40.6439 23.6198 42.3436 23.6198C43.9769 23.6198 45.1459 24.0158 45.8507 24.8077C46.5554 25.591 46.9078 26.8555 46.9078 28.6011V30.0188H41.2243V30.2615C41.2243 30.7638 41.274 31.1768 41.3735 31.5004C41.4813 31.8239 41.6347 32.0624 41.8337 32.2156C42.0327 32.3689 42.2358 32.4711 42.4431 32.5222C42.6503 32.5733 42.9032 32.5988 43.2017 32.5988C43.4919 32.5988 43.8028 32.5605 44.1344 32.4838C44.4744 32.4072 44.8143 32.288 45.1542 32.1262C45.5024 31.9644 45.7926 31.7729 46.0248 31.5515L46.7585 32.8415C46.4518 33.3524 45.9999 33.7824 45.4029 34.1315C44.8143 34.4721 44.2463 34.702 43.6991 34.8212C43.1519 34.9404 42.6296 35 42.1321 35Z" fill="#29140C"/>
        <path d="M48.1182 34.7318V20.2863L47.372 19.8264V18.6386L51.3641 18H52.1725V34.7318H48.1182Z" fill="#29140C"/>
        <path d="M53.6928 34.7318V20.2863L52.9466 19.8264V18.6386L56.9387 18H57.7471V34.7318H53.6928Z" fill="#29140C"/>
        <path d="M64.4036 33.4673C64.7684 33.4673 65.0461 33.314 65.2368 33.0075C65.4358 32.6925 65.5353 32.2625 65.5353 31.7175V27.6814C65.5353 26.021 65.1539 25.1908 64.3911 25.1908C64.0346 25.1908 63.7569 25.3398 63.5579 25.6379C63.3589 25.9359 63.2594 26.3574 63.2594 26.9023V31.0533C63.2594 32.6627 63.6408 33.4673 64.4036 33.4673ZM64.3041 35C62.4055 35 61.0167 34.5572 60.1379 33.6717C59.259 32.7861 58.8196 31.3727 58.8196 29.4313C58.8196 27.5069 59.2632 26.0594 60.1503 25.0887C61.0374 24.1094 62.4801 23.6198 64.4782 23.6198C66.4266 23.6198 67.8319 24.0882 68.6942 25.0248C69.5647 25.9529 70 27.3621 70 29.2524C70 31.2109 69.5399 32.6584 68.6196 33.595C67.7075 34.5317 66.2691 35 64.3041 35Z" fill="#29140C"/>
    </symbol>

    <symbol viewBox="0 0 235 37" id="logo" xmlns="http://www.w3.org/2000/svg">
        <path d="M58.4368 35.4528H50.2319V6.00508H53.504C54.3798 6.00508 55.7019 5.97158 57.4701 5.90458C59.2383 5.82083 60.6926 5.77895 61.8328 5.77895C65.0388 5.77895 67.4681 6.64161 69.1206 8.36693C70.7732 10.0922 71.5995 12.6802 71.5995 16.1309C71.5995 18.2079 71.3268 20.1008 70.7814 21.8093C70.2526 23.5012 69.5338 24.8915 68.6248 25.9803C67.7159 27.0691 66.6831 27.9066 65.5263 28.4929C64.3695 29.0791 63.1466 29.3723 61.8576 29.3723C61.6924 29.3723 61.5189 29.3723 61.3371 29.3723C61.1718 29.3723 61.0148 29.3723 60.8661 29.3723C60.7339 29.3555 60.5686 29.3471 60.3703 29.3471C60.1886 29.3304 60.0398 29.322 59.9241 29.322C59.825 29.3053 59.6763 29.2969 59.478 29.2969C59.2962 29.2801 59.1722 29.2718 59.1061 29.2718C59.04 29.2718 58.9161 29.2634 58.7343 29.2466C58.5525 29.2299 58.4534 29.2215 58.4368 29.2215V35.4528ZM63.4689 15.0253C63.4689 13.7858 63.1384 12.7807 62.4773 12.0102C61.8163 11.2397 60.8661 10.8544 59.6267 10.8544H58.4368V23.9199H59.354C60.6595 23.9199 61.6676 23.476 62.3782 22.5883C63.1053 21.7005 63.4689 20.419 63.4689 18.744V15.0253Z" fill="#29140C"/>
        <path d="M84.8736 22.4626C84.8736 20.3353 84.7662 18.8277 84.5514 17.9399C84.3365 17.0522 83.9399 16.6083 83.3615 16.6083C82.8657 16.6083 82.4609 16.7004 82.1469 16.8846C81.8329 17.0522 81.6015 17.3285 81.4528 17.7138C81.3041 18.0823 81.2049 18.4676 81.1554 18.8696C81.1223 19.2549 81.1058 19.749 81.1058 20.352V22.4626H84.8736ZM82.8905 35.9804C81.0397 35.9804 79.4284 35.6957 78.0568 35.1261C76.7017 34.5566 75.6276 33.761 74.8343 32.7392C74.0576 31.7174 73.4875 30.5699 73.1239 29.2969C72.7604 28.0071 72.5786 26.5749 72.5786 25.0003C72.5786 21.2482 73.5205 18.409 75.4045 16.4826C77.2884 14.5563 79.9242 13.5931 83.3119 13.5931C86.5675 13.5931 88.8976 14.372 90.3023 15.9299C91.7069 17.4709 92.4093 19.9584 92.4093 23.3923V26.1813H81.081V26.6587C81.081 27.647 81.1802 28.4594 81.3785 29.0959C81.5933 29.7324 81.899 30.2014 82.2956 30.5029C82.6922 30.8045 83.0971 31.0055 83.5102 31.106C83.9234 31.2065 84.4274 31.2567 85.0223 31.2567C85.6007 31.2567 86.2204 31.1813 86.8815 31.0306C87.559 30.8798 88.2366 30.6453 88.9141 30.3271C89.6082 30.0088 90.1866 29.6319 90.6493 29.1964L92.1118 31.7341C91.5004 32.7392 90.5997 33.5851 89.4099 34.2718C88.2366 34.9419 87.1046 35.3941 86.0139 35.6287C84.9232 35.8632 83.8821 35.9804 82.8905 35.9804Z" fill="#29140C"/>
        <path d="M100.895 35.9804C98.6641 35.9804 97.1024 35.302 96.21 33.9452C95.3342 32.5884 94.8962 30.2936 94.8962 27.0607V18.5178H93.1858V15.0253L96.1109 14.0957L98.6393 8.2413H103.002V14.0957H107.067V18.5178H102.928V27.8647C102.928 29.2048 103.118 30.0926 103.498 30.5281C103.878 30.9636 104.465 31.1813 105.258 31.1813C105.605 31.1813 105.919 31.1395 106.2 31.0557C106.481 30.972 106.712 30.8547 106.894 30.704V34.1211C106.646 34.3723 106.324 34.6236 105.927 34.8749C105.53 35.1094 104.869 35.3523 103.944 35.6035C103.035 35.8548 102.019 35.9804 100.895 35.9804Z" fill="#29140C"/>
        <path d="M115.775 35.9804C114.222 35.9804 112.652 35.7208 111.065 35.2015C109.479 34.6655 108.463 34.1462 108.016 33.6437L108.661 29.5984C109.223 30.1512 110.156 30.6286 111.462 31.0306C112.784 31.4326 114.131 31.6336 115.503 31.6336C116.494 31.6336 117.172 31.508 117.535 31.2567C117.915 31.0055 118.105 30.6537 118.105 30.2014C118.105 29.7659 117.775 29.3806 117.114 29.0456C116.453 28.6939 115.379 28.2919 113.891 27.8396C110.041 26.667 108.116 24.2382 108.116 20.553C108.116 19.0455 108.545 17.7557 109.405 16.6836C110.264 15.5948 111.363 14.8076 112.701 14.3218C114.04 13.836 115.536 13.5931 117.188 13.5931C120.014 13.5931 122.096 14.1208 123.435 15.1761C123.732 15.4608 123.881 15.6032 123.881 15.6032L122.79 19.1962C121.7 18.1074 120.196 17.563 118.279 17.563C116.709 17.563 115.924 18.0321 115.924 18.9701C115.924 19.2381 115.982 19.4642 116.097 19.6485C116.213 19.816 116.403 19.9668 116.668 20.1008C116.948 20.218 117.221 20.3185 117.486 20.4023C117.75 20.4693 118.122 20.5698 118.601 20.7038C119.08 20.8211 119.493 20.9299 119.84 21.0304C121.774 21.6837 123.179 22.605 124.054 23.7943C124.93 24.9836 125.368 26.466 125.368 28.2416C125.368 33.4008 122.171 35.9804 115.775 35.9804Z" fill="#29140C"/>
        <path d="M127.534 23.7943V17.4877H142.357V23.7943H127.534Z" fill="#29140C"/>
        <path d="M153.978 35.4528H145.946V7.03525L144.459 6.13071V3.79399L152.416 2.53769H154.027V17.3369L154.325 16.96C154.523 16.692 154.812 16.3737 155.192 16.0052C155.589 15.6367 156.027 15.2766 156.506 14.9248C156.985 14.5563 157.555 14.2464 158.216 13.9952C158.894 13.7271 159.555 13.5931 160.199 13.5931C162.463 13.5931 164.058 14.2213 164.984 15.4776C165.925 16.7339 166.396 18.8361 166.396 21.7842C166.396 21.8847 166.396 22.0355 166.396 22.2365C166.38 22.4375 166.372 22.5966 166.372 22.7139V35.4528H158.192V21.9852C158.241 20.4107 157.58 19.6234 156.208 19.6234C156.076 19.6234 155.944 19.6318 155.812 19.6485C155.696 19.6653 155.572 19.7071 155.44 19.7741C155.308 19.8411 155.2 19.8914 155.118 19.9249C155.052 19.9584 154.944 20.0254 154.796 20.1259C154.663 20.2264 154.572 20.2934 154.523 20.3269C154.49 20.3604 154.391 20.4442 154.225 20.5782C154.077 20.7122 153.994 20.7876 153.978 20.8043V35.4528Z" fill="#29140C"/>
        <path d="M180.59 22.4626C180.59 20.3353 180.482 18.8277 180.267 17.9399C180.052 17.0522 179.656 16.6083 179.077 16.6083C178.582 16.6083 178.177 16.7004 177.863 16.8846C177.549 17.0522 177.317 17.3285 177.169 17.7138C177.02 18.0823 176.921 18.4676 176.871 18.8696C176.838 19.2549 176.822 19.749 176.822 20.352V22.4626H180.59ZM178.606 35.9804C176.756 35.9804 175.144 35.6957 173.773 35.1261C172.418 34.5566 171.343 33.761 170.55 32.7392C169.774 31.7174 169.203 30.5699 168.84 29.2969C168.476 28.0071 168.295 26.5749 168.295 25.0003C168.295 21.2482 169.236 18.409 171.12 16.4826C173.004 14.5563 175.64 13.5931 179.028 13.5931C182.283 13.5931 184.613 14.372 186.018 15.9299C187.423 17.4709 188.125 19.9584 188.125 23.3923V26.1813H176.797V26.6587C176.797 27.647 176.896 28.4594 177.094 29.0959C177.309 29.7324 177.615 30.2014 178.012 30.5029C178.408 30.8045 178.813 31.0055 179.226 31.106C179.639 31.2065 180.143 31.2567 180.738 31.2567C181.317 31.2567 181.936 31.1813 182.597 31.0306C183.275 30.8798 183.952 30.6453 184.63 30.3271C185.324 30.0088 185.902 29.6319 186.365 29.1964L187.828 31.7341C187.216 32.7392 186.316 33.5851 185.126 34.2718C183.952 34.9419 182.82 35.3941 181.73 35.6287C180.639 35.8632 179.598 35.9804 178.606 35.9804Z" fill="#29140C"/>
        <path d="M190.538 35.4528V7.03525L189.05 6.13071V3.79399L197.008 2.53769H198.619V35.4528H190.538Z" fill="#29140C"/>
        <path d="M201.649 35.4528V7.03525L200.162 6.13071V3.79399L208.119 2.53769H209.73V35.4528H201.649Z" fill="#29140C"/>
        <path d="M222.998 32.9653C223.725 32.9653 224.278 32.6638 224.659 32.0608C225.055 31.441 225.253 30.5951 225.253 29.523V21.5832C225.253 18.3168 224.493 16.6836 222.973 16.6836C222.262 16.6836 221.709 16.9768 221.312 17.563C220.916 18.1493 220.717 18.9785 220.717 20.0505V28.2165C220.717 31.3824 221.477 32.9653 222.998 32.9653ZM222.799 35.9804C219.015 35.9804 216.247 35.1094 214.495 33.3673C212.744 31.6252 211.868 28.8446 211.868 25.0255C211.868 21.2398 212.752 18.3922 214.52 16.4826C216.288 14.5563 219.164 13.5931 223.146 13.5931C227.03 13.5931 229.831 14.5144 231.55 16.357C233.285 18.1828 234.152 20.9551 234.152 24.6737C234.152 28.5264 233.235 31.374 231.401 33.2166C229.583 35.0591 226.716 35.9804 222.799 35.9804Z" fill="#29140C"/>
        <path d="M27.4234 13.9127C24.3299 13.0782 21.1051 13.5195 18.3352 15.1501C12.6577 18.4992 10.7372 25.9615 14.0541 31.7847L14.8989 33.2679C16.0937 35.3655 18.2333 36.6387 20.6226 36.6737C23.0117 36.7088 25.1871 35.499 26.4412 33.4374C27.204 32.1835 28.5268 31.4093 29.9796 31.3667C31.1238 31.3331 32.2063 31.0164 33.1522 30.4628C34.1806 29.8609 35.0473 28.9788 35.6541 27.8771C36.8187 25.7623 36.8007 23.2473 35.606 21.1498L34.7029 19.5642C33.1021 16.7542 30.517 14.7471 27.4234 13.9127Z" fill="#FFCA42"/>
        <path d="M5.82731 18.9624L5.03188 18.8776C2.53366 18.6115 0.287672 20.4551 0.0252021 22.9872C-0.237337 25.5193 1.58136 27.796 4.07957 28.0621L4.87501 28.1469C5.86681 28.2526 6.81885 28.0257 7.62289 27.5552C8.84392 26.8406 9.72343 25.564 9.88182 24.0372C10.1442 21.5051 8.32541 19.2285 5.82731 18.9624Z" fill="#FFCA42"/>
        <path d="M34.3134 3.04818C32.0187 2.01258 29.3203 3.06237 28.2988 5.38842L27.9735 6.12905C26.9518 8.455 27.9875 11.1899 30.2823 12.2255C31.6661 12.85 33.1963 12.7162 34.4174 12.0016C35.2213 11.5311 35.8913 10.8087 36.2969 9.88531L36.6222 9.14468C37.6438 6.81866 36.6081 4.08379 34.3134 3.04818Z" fill="#FFCA42"/>
        <path d="M13.2113 9.23572L11.6294 7.79202C10.7252 6.96668 9.55797 6.54774 8.34273 6.61235C7.12758 6.6768 6.00987 7.21722 5.19578 8.13381C4.38157 9.05037 3.96816 10.2335 4.03178 11.4653C4.09541 12.697 4.62853 13.8299 5.53284 14.6552L7.11469 16.0989C8.61737 17.4702 10.7804 17.6384 12.4437 16.665C12.8467 16.4292 13.2207 16.1261 13.5484 15.7571C14.3626 14.8406 14.776 13.6573 14.7124 12.4256C14.6486 11.1939 14.1155 10.061 13.2113 9.23572Z" fill="#FFCA42"/>
        <path d="M19.0038 0.10142C16.5467 0.630802 14.9728 3.08767 15.4951 5.57813L15.9376 7.6885C16.1906 8.89491 16.892 9.92932 17.9124 10.6011C18.9329 11.2729 20.1505 11.5016 21.3407 11.2452C21.82 11.1419 22.2656 10.9654 22.6688 10.7294C24.332 9.75609 25.27 7.77318 24.8496 5.76841L24.407 3.65797C23.8847 1.16752 21.4609 -0.42792 19.0038 0.10142Z" fill="#FFCA42"/>
    </symbol>

    <symbol viewBox="0 0 268 43" id="logo-white" xmlns="http://www.w3.org/2000/svg">
        <path d="M66.8657 41.3571H57.497V7.73277H61.2332C62.2332 7.73277 63.7428 7.69452 65.7618 7.61801C67.7808 7.52238 69.4414 7.47457 70.7433 7.47457C74.404 7.47457 77.1778 8.45958 79.0648 10.4296C80.9517 12.3996 81.8952 15.3547 81.8952 19.2947C81.8952 21.6664 81.5838 23.8277 80.9611 25.7786C80.3573 27.7104 79.5365 29.2979 78.4987 30.5411C77.4609 31.7843 76.2815 32.7406 74.9607 33.41C73.6398 34.0795 72.2435 34.4142 70.7717 34.4142C70.583 34.4142 70.3848 34.4142 70.1773 34.4142C69.9886 34.4142 69.8093 34.4142 69.6395 34.4142C69.4885 34.3951 69.2998 34.3855 69.0734 34.3855C68.8658 34.3664 68.696 34.3568 68.5639 34.3568C68.4507 34.3377 68.2809 34.3281 68.0545 34.3281C67.8469 34.309 67.7054 34.2994 67.6299 34.2994C67.5544 34.2994 67.4129 34.2899 67.2053 34.2707C66.9978 34.2516 66.8846 34.242 66.8657 34.242V41.3571ZM72.6114 18.0324C72.6114 16.617 72.234 15.4694 71.4793 14.5896C70.7245 13.7098 69.6395 13.2699 68.2243 13.2699H66.8657V28.1885H67.9129C69.4036 28.1885 70.5547 27.6817 71.366 26.668C72.1963 25.6543 72.6114 24.1911 72.6114 22.2784V18.0324Z" fill="white"/>
        <path d="M97.052 26.5245C97.052 24.0955 96.9294 22.3741 96.6841 21.3604C96.4388 20.3467 95.9859 19.8398 95.3255 19.8398C94.7594 19.8398 94.2971 19.945 93.9386 20.1554C93.5801 20.3467 93.3159 20.6623 93.1461 21.1022C92.9762 21.5229 92.863 21.9629 92.8064 22.4219C92.7687 22.8618 92.7498 23.426 92.7498 24.1146V26.5245H97.052ZM94.7877 41.9596C92.6743 41.9596 90.8346 41.6344 89.2684 40.9841C87.7211 40.3338 86.4946 39.4253 85.5889 38.2586C84.702 37.0919 84.051 35.7817 83.6359 34.3281C83.2207 32.8554 83.0132 31.2201 83.0132 29.4222C83.0132 25.1378 84.0887 21.8959 86.2399 19.6964C88.391 17.4968 91.4006 16.3971 95.2689 16.3971C98.9861 16.3971 101.647 17.2864 103.251 19.0652C104.855 20.8248 105.656 23.6651 105.656 27.586V30.7706H92.7215V31.3157C92.7215 32.4442 92.8347 33.3718 93.0612 34.0986C93.3065 34.8254 93.6555 35.3609 94.1084 35.7052C94.5613 36.0495 95.0236 36.279 95.4953 36.3938C95.967 36.5085 96.5426 36.5659 97.2219 36.5659C97.8823 36.5659 98.5899 36.4798 99.3447 36.3077C100.118 36.1356 100.892 35.8678 101.666 35.5044C102.458 35.141 103.119 34.7106 103.647 34.2134L105.317 37.111C104.619 38.2586 103.59 39.2245 102.232 40.0087C100.892 40.7737 99.5994 41.2901 98.354 41.5579C97.1087 41.8257 95.9199 41.9596 94.7877 41.9596Z" fill="white"/>
        <path d="M115.346 41.9596C112.798 41.9596 111.015 41.1849 109.996 39.6357C108.996 38.0865 108.496 35.4661 108.496 31.7747V22.0202H106.543V18.0324L109.883 16.9709L112.77 10.2862H117.752V16.9709H122.394V22.0202H117.667V32.6928C117.667 34.2229 117.884 35.2366 118.318 35.7339C118.752 36.2312 119.422 36.4798 120.327 36.4798C120.724 36.4798 121.082 36.432 121.403 36.3364C121.724 36.2408 121.988 36.1069 122.195 35.9347V39.8365C121.912 40.1234 121.544 40.4103 121.092 40.6972C120.639 40.965 119.884 41.2423 118.827 41.5292C117.789 41.8161 116.629 41.9596 115.346 41.9596Z" fill="white"/>
        <path d="M132.336 41.9596C130.563 41.9596 128.77 41.6631 126.959 41.0702C125.147 40.4581 123.987 39.8652 123.477 39.2914L124.213 34.6724C124.855 35.3036 125.921 35.8487 127.412 36.3077C128.921 36.7667 130.459 36.9963 132.025 36.9963C133.157 36.9963 133.931 36.8528 134.346 36.5659C134.78 36.279 134.997 35.8774 134.997 35.3609C134.997 34.8637 134.62 34.4237 133.865 34.0412C133.11 33.6396 131.884 33.1805 130.185 32.6641C125.789 31.3253 123.59 28.5519 123.59 24.3441C123.59 22.6227 124.081 21.15 125.062 19.9259C126.044 18.6827 127.298 17.7837 128.827 17.2291C130.355 16.6744 132.063 16.3971 133.95 16.3971C137.176 16.3971 139.554 16.9995 141.082 18.2045C141.422 18.5297 141.592 18.6922 141.592 18.6922L140.347 22.7949C139.101 21.5516 137.384 20.93 135.195 20.93C133.403 20.93 132.506 21.4656 132.506 22.5367C132.506 22.8427 132.572 23.1009 132.704 23.3113C132.836 23.5025 133.053 23.6747 133.355 23.8277C133.676 23.9616 133.988 24.0763 134.289 24.172C134.591 24.2485 135.016 24.3632 135.563 24.5162C136.11 24.6501 136.582 24.7744 136.978 24.8892C139.186 25.6351 140.79 26.6871 141.79 28.0451C142.79 29.403 143.29 31.0957 143.29 33.1231C143.29 39.0141 139.639 41.9596 132.336 41.9596Z" fill="white"/>
        <path d="M145.763 28.0451V20.844H162.688V28.0451H145.763Z" fill="white"/>
        <path d="M175.957 41.3571H166.787V8.90905L165.088 7.87622V5.20808L174.174 3.7736H176.014V20.6718L176.353 20.2415C176.58 19.9355 176.91 19.572 177.344 19.1513C177.797 18.7305 178.297 18.3193 178.844 17.9176C179.391 17.4968 180.042 17.143 180.797 16.8561C181.571 16.5501 182.326 16.3971 183.061 16.3971C185.647 16.3971 187.467 17.1143 188.524 18.5488C189.6 19.9833 190.137 22.3836 190.137 25.7499C190.137 25.8647 190.137 26.0368 190.137 26.2663C190.119 26.4958 190.109 26.6775 190.109 26.8114V41.3571H180.769V25.9794C180.825 24.1815 180.071 23.2826 178.504 23.2826C178.354 23.2826 178.203 23.2921 178.052 23.3113C177.919 23.3304 177.778 23.3782 177.627 23.4547C177.476 23.5312 177.353 23.5886 177.259 23.6269C177.184 23.6651 177.061 23.7416 176.891 23.8564C176.74 23.9711 176.636 24.0476 176.58 24.0859C176.542 24.1241 176.429 24.2198 176.24 24.3728C176.07 24.5258 175.976 24.6119 175.957 24.631V41.3571Z" fill="white"/>
        <path d="M206.344 26.5245C206.344 24.0955 206.221 22.3741 205.976 21.3604C205.73 20.3467 205.277 19.8398 204.617 19.8398C204.051 19.8398 203.589 19.945 203.23 20.1554C202.872 20.3467 202.607 20.6623 202.438 21.1022C202.268 21.5229 202.155 21.9629 202.098 22.4219C202.06 22.8618 202.041 23.426 202.041 24.1146V26.5245H206.344ZM204.079 41.9596C201.966 41.9596 200.126 41.6344 198.56 40.9841C197.013 40.3338 195.786 39.4253 194.88 38.2586C193.994 37.0919 193.343 35.7817 192.927 34.3281C192.512 32.8554 192.305 31.2201 192.305 29.4222C192.305 25.1378 193.38 21.8959 195.531 19.6964C197.682 17.4968 200.692 16.3971 204.56 16.3971C208.278 16.3971 210.938 17.2864 212.542 19.0652C214.146 20.8248 214.948 23.6651 214.948 27.586V30.7706H202.013V31.3157C202.013 32.4442 202.126 33.3718 202.353 34.0986C202.598 34.8254 202.947 35.3609 203.4 35.7052C203.853 36.0495 204.315 36.279 204.787 36.3938C205.259 36.5085 205.834 36.5659 206.513 36.5659C207.174 36.5659 207.881 36.4798 208.636 36.3077C209.41 36.1356 210.183 35.8678 210.957 35.5044C211.75 35.141 212.41 34.7106 212.938 34.2134L214.608 37.111C213.91 38.2586 212.882 39.2245 211.523 40.0087C210.183 40.7737 208.891 41.2901 207.646 41.5579C206.4 41.8257 205.211 41.9596 204.079 41.9596Z" fill="white"/>
        <path d="M217.703 41.3571V8.90905L216.005 7.87622V5.20808L225.09 3.7736H226.93V41.3571H217.703Z" fill="white"/>
        <path d="M230.39 41.3571V8.90905L228.692 7.87622V5.20808L237.777 3.7736H239.617V41.3571H230.39Z" fill="white"/>
        <path d="M254.767 38.5168C255.597 38.5168 256.229 38.1725 256.663 37.484C257.116 36.7763 257.342 35.8104 257.342 34.5863V25.5204C257.342 21.7907 256.474 19.9259 254.738 19.9259C253.927 19.9259 253.295 20.2606 252.842 20.93C252.389 21.5995 252.163 22.5462 252.163 23.7703V33.0945C252.163 36.7094 253.031 38.5168 254.767 38.5168ZM254.54 41.9596C250.219 41.9596 247.058 40.965 245.058 38.9758C243.058 36.9867 242.058 33.8117 242.058 29.4509C242.058 25.1283 243.068 21.8768 245.087 19.6964C247.106 17.4968 250.389 16.3971 254.936 16.3971C259.371 16.3971 262.569 17.449 264.532 19.5529C266.513 21.6377 267.503 24.8031 267.503 29.0492C267.503 33.4483 266.456 36.6998 264.362 38.8037C262.286 40.9076 259.012 41.9596 254.54 41.9596Z" fill="white"/>
        <path d="M31.4535 16.7619C27.9212 15.8091 24.2391 16.313 21.0763 18.1748C14.5936 21.999 12.4007 30.5196 16.188 37.1688L17.1526 38.8623C18.5169 41.2575 20.96 42.7113 23.6882 42.7512C26.4162 42.7913 28.9 41.4099 30.332 39.0558C31.203 37.6241 32.7134 36.7402 34.3723 36.6914C35.6788 36.6532 36.9149 36.2915 37.9948 35.6594C39.1691 34.9721 40.1588 33.965 40.8516 32.707C42.1814 30.2922 42.1609 27.4205 40.7967 25.0254L39.7655 23.215C37.9377 20.0065 34.9859 17.7147 31.4535 16.7619Z" fill="#FFCA42"/>
        <path d="M6.79443 22.5278L5.88618 22.431C3.03364 22.1271 0.469098 24.2322 0.169402 27.1235C-0.130374 30.0147 1.94627 32.6143 4.79881 32.9182L5.70706 33.015C6.83954 33.1357 7.92661 32.8766 8.84469 32.3393C10.2389 31.5234 11.2432 30.0658 11.424 28.3225C11.7236 25.4312 9.64685 22.8317 6.79443 22.5278Z" fill="#FFCA42"/>
        <path d="M39.3207 4.35649C36.7006 3.17401 33.6195 4.37269 32.4531 7.02865L32.0817 7.87432C30.9151 10.5302 32.0977 13.653 34.7179 14.8355C36.298 15.5485 38.0452 15.3957 39.4395 14.5798C40.3574 14.0426 41.1224 13.2177 41.5855 12.1633L41.957 11.3177C43.1235 8.66174 41.9409 5.53898 39.3207 4.35649Z" fill="#FFCA42"/>
        <path d="M15.2257 11.4216L13.4195 9.77315C12.387 8.83075 11.0542 8.3524 9.66662 8.42617C8.27912 8.49976 7.00289 9.11683 6.07333 10.1634C5.14365 11.21 4.67159 12.5609 4.74424 13.9674C4.81689 15.3739 5.42562 16.6674 6.4582 17.6097L8.26441 19.2582C9.98021 20.8241 12.45 21.0161 14.3493 19.9046C14.8094 19.6353 15.2364 19.2892 15.6107 18.8679C16.5403 17.8214 17.0123 16.4704 16.9397 15.0639C16.8669 13.6575 16.2582 12.364 15.2257 11.4216Z" fill="#FFCA42"/>
        <path d="M21.8398 0.991782C19.0342 1.59625 17.2371 4.40158 17.8334 7.24526L18.3387 9.65495C18.6276 11.0325 19.4284 12.2136 20.5936 12.9807C21.7589 13.7478 23.1492 14.0089 24.5081 13.7162C25.0554 13.5981 25.5642 13.3966 26.0246 13.1272C27.9237 12.0158 28.9947 9.75164 28.5147 7.46253L28.0094 5.05277C27.413 2.20908 24.6453 0.387364 21.8398 0.991782Z" fill="#FFCA42"/>
    </symbol>

    <symbol viewBox="0 0 19 19" id="close-modal" xmlns="http://www.w3.org/2000/svg">
        <path fill-rule="evenodd" clip-rule="evenodd" d="M2.14548 0.714597C1.74931 0.31421 1.10727 0.31421 0.711096 0.714597C0.315051 1.11498 0.315051 1.76415 0.711096 2.16455L7.97981 9.51259L0.905591 16.6641C0.509545 17.0645 0.509545 17.7136 0.905591 18.114C1.30164 18.5144 1.9438 18.5144 2.33985 18.114L9.41406 10.9625L16.4883 18.114C16.8843 18.5144 17.5265 18.5144 17.9225 18.114C18.3186 17.7136 18.3186 17.0645 17.9225 16.6641L10.8483 9.51259L18.117 2.16455C18.5131 1.76415 18.5131 1.11498 18.117 0.714597C17.7209 0.31421 17.0788 0.31421 16.6826 0.714597L9.41406 8.06261L2.14548 0.714597Z" fill="currentColor"/>
    </symbol>
    
    <symbol viewBox="0 0 27 27" id="create" xmlns="http://www.w3.org/2000/svg">
        <path fill-rule="evenodd" clip-rule="evenodd" d="M0 13.5C0 6.05565 6.05564 0 13.5 0C20.9444 0 27 6.0567 27 13.5C27 20.9433 20.9444 27 13.5 27C6.05564 27 0 20.9444 0 13.5ZM2.09139 13.5C2.09139 19.791 7.21011 24.9086 13.5 24.9086C19.7909 24.9086 24.9086 19.791 24.9086 13.5C24.9086 7.20905 19.7899 2.0914 13.5 2.0914C7.21011 2.0914 2.09139 7.20905 2.09139 13.5ZM14.5465 12.3603H18.7293C19.3076 12.3603 19.775 12.8288 19.775 13.4061C19.775 13.9833 19.3076 14.4518 18.7293 14.4518H14.5465V18.6346C14.5465 19.2118 14.0791 19.6803 13.5008 19.6803C12.9225 19.6803 12.4551 19.2118 12.4551 18.6346V14.4518H8.27229C7.694 14.4518 7.22656 13.9833 7.22656 13.4061C7.22656 12.8288 7.694 12.3603 8.27229 12.3603H12.4551V8.17755C12.4551 7.60033 12.9225 7.13184 13.5008 7.13184C14.0791 7.13184 14.5465 7.60033 14.5465 8.17755V12.3603Z" fill="currentColor"/>
    </symbol>

    <symbol viewBox="0 0 27 27" id="list" xmlns="http://www.w3.org/2000/svg">
        <path fill-rule="evenodd" clip-rule="evenodd" d="M1.83226 2.74219H7.44899C8.45933 2.74219 9.28125 3.56411 9.28125 4.57444V10.1912C9.28125 11.2015 8.45933 12.0234 7.44899 12.0234H1.83226C0.821918 12.0234 0 11.2015 0 10.1912V4.57444C0 3.56411 0.821918 2.74219 1.83226 2.74219ZM1.83226 14.9766H7.44899C8.45933 14.9766 9.28125 15.7985 9.28125 16.8088V22.4256C9.28125 23.4359 8.45933 24.2578 7.44899 24.2578H1.83226C0.821918 24.2578 0 23.4359 0 22.4256V16.8088C0 15.7985 0.821918 14.9766 1.83226 14.9766ZM26.1562 6.96094H12.6562C12.1903 6.96094 11.8125 6.58315 11.8125 6.11719C11.8125 5.65123 12.1903 5.27344 12.6562 5.27344H26.1562C26.6222 5.27344 27 5.65123 27 6.11719C27 6.58315 26.6222 6.96094 26.1562 6.96094ZM12.6562 10.125H21.5156C21.9816 10.125 22.3594 9.74721 22.3594 9.28125C22.3594 8.81529 21.9816 8.4375 21.5156 8.4375H12.6562C12.1903 8.4375 11.8125 8.81529 11.8125 9.28125C11.8125 9.74721 12.1903 10.125 12.6562 10.125ZM26.1562 18.9844H12.6562C12.1903 18.9844 11.8125 18.6066 11.8125 18.1406C11.8125 17.6747 12.1903 17.2969 12.6562 17.2969H26.1562C26.6222 17.2969 27 17.6747 27 18.1406C27 18.6066 26.6222 18.9844 26.1562 18.9844ZM12.6562 22.3594H21.5156C21.9816 22.3594 22.3594 21.9816 22.3594 21.5156C22.3594 21.0497 21.9816 20.6719 21.5156 20.6719H12.6562C12.1903 20.6719 11.8125 21.0497 11.8125 21.5156C11.8125 21.9816 12.1903 22.3594 12.6562 22.3594Z" fill="currentColor"/>
    </symbol>

    <symbol viewBox="0 0 27 27" id="favorite" xmlns="http://www.w3.org/2000/svg">
        <path fill-rule="evenodd" clip-rule="evenodd" d="M13.8594 4.62521L12.4095 9.29858C12.0122 10.5792 10.8727 11.4463 9.587 11.4463H4.89516L8.69093 14.3346C9.73111 15.1261 10.1664 16.5291 9.76904 17.8097L8.31919 22.4831L12.115 19.5948C13.1551 18.8033 14.5636 18.8033 15.6038 19.5948L19.3996 22.4831L17.9497 17.8097C17.5524 16.5291 17.9876 15.1261 19.0278 14.3346L22.8236 11.4463H18.1318C16.846 11.4463 15.7065 10.5792 15.3092 9.29858L13.8594 4.62521ZM14.8002 0.95224C14.5041 -0.00230703 13.2147 -0.00231024 12.9185 0.952237L10.5278 8.65825C10.3954 9.08514 10.0156 9.37416 9.587 9.37416H1.85053C0.892214 9.37416 0.493761 10.6585 1.26906 11.2484L7.52799 16.011C7.87471 16.2748 8.0198 16.7425 7.88736 17.1694L5.49666 24.8754C5.20052 25.8299 6.24368 26.6237 7.01897 26.0338L13.2779 21.2712C13.6246 21.0074 14.0941 21.0074 14.4408 21.2712L20.6998 26.0338C21.4751 26.6237 22.5182 25.8299 22.2221 24.8754L19.8314 17.1694C19.699 16.7425 19.844 16.2748 20.1908 16.011L26.4497 11.2484C27.225 10.6585 26.8265 9.37416 25.8682 9.37416H18.1318C17.7032 9.37416 17.3234 9.08514 17.1909 8.65825L14.8002 0.95224Z" fill="currentColor"/>
    </symbol>

    <symbol viewBox="0 0 27 27" id="settings" xmlns="http://www.w3.org/2000/svg">
        <path fill-rule="evenodd" clip-rule="evenodd" d="M12.6566 27C11.2839 27 10.1711 25.8871 10.1711 24.5144V23.9412C9.58377 23.7536 9.01798 23.5178 8.47844 23.2386L8.07256 23.6445L8.07237 23.6447L8.07219 23.6449C7.60577 24.1117 6.97317 24.373 6.31442 24.373C5.65593 24.373 5.02318 24.1116 4.55683 23.6446L4.55665 23.6444L3.35932 22.4472L3.35909 22.4469L3.35903 22.4469C2.89235 21.9806 2.63082 21.348 2.63082 20.6895C2.63082 20.0305 2.89231 19.398 3.35903 18.9316L3.35927 18.9314L3.76527 18.5254C3.48607 17.9859 3.25035 17.4201 3.0627 16.8328H2.48949C1.11681 16.8328 0.00390625 15.7199 0.00390625 14.3473V12.6527C0.00390625 11.2801 1.11681 10.1672 2.48949 10.1672H3.06269C3.25035 9.57988 3.48607 9.0141 3.76527 8.47455L3.35932 8.06861L3.35899 8.06829C2.89227 7.60194 2.63082 6.96941 2.63082 6.31051C2.63082 5.65185 2.89246 5.01916 3.35932 4.55284L4.55669 3.35546L4.55703 3.35513C5.02331 2.88841 5.65595 2.62691 6.31442 2.62691C6.9734 2.62691 7.60612 2.88848 8.07252 3.35542L8.47845 3.76137C9.018 3.48216 9.58379 3.24643 10.1711 3.05878V2.48553C10.1711 1.11284 11.2839 3.8147e-06 12.6566 3.8147e-06H14.3511C15.7238 3.8147e-06 16.8367 1.11281 16.8367 2.48553V3.05878C17.424 3.24642 17.9898 3.48215 18.5293 3.76136L18.9353 3.35537L18.9356 3.35509C19.4019 2.88839 20.0345 2.62691 20.6934 2.62691C21.352 2.62691 21.9847 2.88855 22.4511 3.35542L23.0498 3.95413L23.6484 4.55279C24.1154 5.01917 24.3769 5.65191 24.3769 6.31051C24.3769 6.96933 24.1156 7.60188 23.6488 8.06829L23.6484 8.06866L23.2425 8.47454C23.5217 9.01408 23.7574 9.57986 23.9451 10.1672H24.5183C25.891 10.1672 27.0039 11.2801 27.0039 12.6527V14.3473C27.0039 15.7199 25.891 16.8328 24.5183 16.8328H23.9451C23.7574 17.4201 23.5217 17.9859 23.2425 18.5254L23.6484 18.9313C24.1154 19.3978 24.3769 20.0305 24.3769 20.6895C24.3769 21.3479 24.1155 21.9805 23.6488 22.4468L23.6484 22.4472L23.5024 22.5932L23.4653 22.6303L23.456 22.6396L23.4537 22.6419L23.4514 22.6442L23.4467 22.6489L23.4281 22.6675L23.3907 22.7049L23.3532 22.7425L23.2019 22.8937L23.0498 23.0459L22.7464 23.3493L22.7276 23.368L22.7252 23.3704L22.7229 23.3727L22.7205 23.3751L22.7182 23.3774L22.7158 23.3798L22.7135 23.3821L22.7112 23.3844L22.7088 23.3868L22.6901 23.4055L22.6714 23.4242L22.5971 23.4985L22.5235 23.5721L22.5052 23.5904L22.5007 23.5949L22.4984 23.5972L22.4961 23.5995L22.4938 23.6018L22.4916 23.6041L22.4893 23.6063L22.487 23.6086L22.4825 23.6131L22.4802 23.6154L22.4779 23.6177L22.4688 23.6268L22.4511 23.6445C21.9847 24.1115 21.3519 24.373 20.6934 24.373C20.0344 24.373 19.4017 24.1115 18.9352 23.6445L18.5293 23.2386C17.9898 23.5178 17.424 23.7536 16.8367 23.9412V24.5144C16.8367 25.8871 15.7238 27 14.3511 27H12.6566ZM7.78086 21.6989L7.78087 21.6989L8.34021 22.2582L7.78087 21.6988C8.0362 21.4435 8.43203 21.3935 8.74285 21.5773C9.48859 22.0183 10.3005 22.3588 11.1597 22.5805C11.509 22.6707 11.7531 22.9857 11.7531 23.3465V24.5144C11.7531 25.0134 12.1577 25.418 12.6566 25.418H14.3511C14.8501 25.418 15.2547 25.0134 15.2547 24.5144V23.3465C15.2547 22.9857 15.4988 22.6707 15.8481 22.5805C16.7073 22.3588 17.5192 22.0183 18.265 21.5773C18.5758 21.3935 18.9716 21.4435 19.227 21.6989L18.6676 22.2582L19.227 21.6989L19.227 21.6989L19.227 21.699L19.2273 21.6992L19.2281 21.7L19.2315 21.7034L19.2446 21.7165L19.2947 21.7666L19.4765 21.9484L20.0542 22.5262L20.0546 22.5265C20.2236 22.6958 20.4534 22.791 20.6934 22.791C20.9328 22.791 21.1626 22.6959 21.3317 22.5266L21.3321 22.5262L21.4784 22.3799L21.5155 22.3428L21.5178 22.3404L21.5201 22.3381L21.5248 22.3335L21.5341 22.3242L21.5528 22.3055L21.6277 22.2306L21.7789 22.0794L21.8549 22.0033L21.893 21.9653L21.912 21.9462L21.9216 21.9367L21.9311 21.9272L22.0833 21.775L22.1212 21.7371L22.1307 21.7276L22.1401 21.7181L22.1449 21.7134L22.1496 21.7087L22.1591 21.6992L22.178 21.6803L22.1968 21.6614L22.2157 21.6426L22.2251 21.6332L22.2298 21.6285L22.2345 21.6238L22.3094 21.5488L22.3838 21.4745L22.4574 21.4009L22.4756 21.3827L22.4847 21.3735L22.4938 21.3644L22.4984 21.3599L22.5007 21.3576L22.5029 21.3553L22.512 21.3463L22.5301 21.3282L22.5305 21.3278C22.6998 21.1587 22.7949 20.9289 22.7949 20.6895C22.7949 20.4495 22.6997 20.2197 22.5304 20.0507L22.5301 20.0504L21.9523 19.4725L21.7705 19.2907L21.7203 19.2405L21.7072 19.2274L21.7038 19.2241L21.703 19.2232L21.7028 19.223L21.7027 19.223L21.7027 19.2229C21.7027 19.2229 21.7027 19.2229 22.2621 18.6636L21.7027 19.2229C21.4474 18.9676 21.3974 18.5718 21.5812 18.261C22.0222 17.5153 22.3627 16.7034 22.5845 15.8441C22.6747 15.4948 22.9897 15.2508 23.3504 15.2508H24.5183C25.0173 15.2508 25.4219 14.8462 25.4219 14.3473V12.6527C25.4219 12.1538 25.0173 11.7492 24.5183 11.7492H23.3504C22.9897 11.7492 22.6747 11.5052 22.5845 11.1559C22.3627 10.2965 22.0222 9.48467 21.5812 8.73894C21.3974 8.42813 21.4474 8.0323 21.7027 7.77697L22.2621 8.33631L21.7028 7.77697L21.7028 7.77695L21.7028 7.7769L21.703 7.77669L21.7039 7.77584L21.7072 7.77249L21.7204 7.75937L21.7705 7.70924L21.9523 7.52741L22.5301 6.94962L22.5305 6.94925C22.6997 6.78025 22.7949 6.55054 22.7949 6.31051C22.7949 6.07106 22.6998 5.84127 22.5305 5.6722L22.5301 5.67179L21.9311 5.07279L21.332 4.47372L21.3318 4.47343C21.1626 4.30411 20.9328 4.20894 20.6934 4.20894C20.4534 4.20894 20.2237 4.30416 20.0545 4.47348L20.0542 4.47375L19.4765 5.05152L19.2947 5.23336L19.2446 5.28349L19.2315 5.2966L19.2281 5.29995L19.2273 5.3008L19.2271 5.30101L19.227 5.30106L19.227 5.30108C19.227 5.30108 19.227 5.30108 18.6676 4.74183L19.227 5.30108C18.9717 5.55648 18.5758 5.60652 18.2649 5.42268C17.5192 4.98166 16.7074 4.64118 15.848 4.41941C15.4987 4.32927 15.2547 4.01423 15.2547 3.65349V2.48553C15.2547 1.98661 14.8501 1.58204 14.3511 1.58204H12.6566C12.1577 1.58204 11.7531 1.98657 11.7531 2.48553V3.65349C11.7531 4.01423 11.5091 4.32927 11.1598 4.41941C10.3005 4.64118 9.48858 4.98166 8.74288 5.42268C8.43205 5.60651 8.03617 5.55649 7.78084 5.30112L7.83702 5.24494C7.78084 5.30112 7.78083 5.30112 7.78083 5.30112L7.78082 5.3011L7.78077 5.30105L7.78055 5.30084L7.77971 5.29999L7.77636 5.29664L7.76324 5.28352L7.71311 5.23339L7.53129 5.05155L6.95353 4.47375L6.9532 4.47343C6.78415 4.30418 6.55434 4.20894 6.31442 4.20894C6.07498 4.20894 5.84513 4.30413 5.6761 4.47338L5.67577 4.47372L4.47766 5.67183L4.47733 5.67215C4.30801 5.84128 4.21285 6.07112 4.21285 6.31051C4.21285 6.55048 4.30807 6.78023 4.47733 6.9493L4.47766 6.94962L5.05545 7.52739L5.23729 7.70921L5.28742 7.75934L5.30054 7.77245L5.30389 7.7758L5.30474 7.77665L5.30495 7.77686L5.30501 7.77692L5.30502 7.77693L4.74573 8.33631L5.30502 7.77694C5.56039 8.03227 5.61041 8.42814 5.42658 8.73898C4.98557 9.48466 4.64514 10.2965 4.42331 11.1559C4.33316 11.5052 4.01812 11.7492 3.6574 11.7492H2.48949C1.99051 11.7492 1.58594 12.1538 1.58594 12.6527V14.3473C1.58594 14.8462 1.99051 15.2508 2.48949 15.2508H3.6574C4.01812 15.2508 4.33315 15.4948 4.42331 15.8441C4.64514 16.7035 4.98557 17.5153 5.42657 18.261C5.61041 18.5718 5.56041 18.9676 5.30506 19.223L4.74573 18.6636L5.30506 19.223L5.30504 19.223L5.30499 19.223L5.30478 19.2233L5.30393 19.2241L5.30058 19.2275L5.28746 19.2406L5.23732 19.2907L5.05546 19.4726L4.47763 20.0504L4.47738 20.0506C4.30807 20.2198 4.21285 20.4495 4.21285 20.6895C4.21285 20.9289 4.30801 21.1587 4.47733 21.3279L4.47762 21.3281L5.67573 22.5262L5.67615 22.5266C5.84512 22.6958 6.07492 22.791 6.31442 22.791C6.5544 22.791 6.78416 22.6958 6.95316 22.5266L6.95353 22.5262L7.53132 21.9484L7.71315 21.7666L7.76328 21.7164L7.77639 21.7033L7.77974 21.7L7.78059 21.6991L7.7808 21.6989L7.78086 21.6989ZM13.5028 19.3749C10.2602 19.3749 7.62821 16.7428 7.62821 13.5003C7.62821 10.2577 10.2602 7.62564 13.5028 7.62564C16.7454 7.62564 19.3774 10.2577 19.3774 13.5003C19.3774 16.7428 16.7454 19.3749 13.5028 19.3749ZM9.21024 13.5003C9.21024 15.8691 11.134 17.7928 13.5028 17.7928C15.8717 17.7928 17.7954 15.8691 17.7954 13.5003C17.7954 11.1314 15.8717 9.20767 13.5028 9.20767C11.134 9.20767 9.21024 11.1314 9.21024 13.5003Z" fill="currentColor"/>
    </symbol>

    <symbol viewBox="0 0 27 27" id="logout" xmlns="http://www.w3.org/2000/svg">
        <path d="M19.1618 25.7344C19.1618 26.07 19.0284 26.392 18.7911 26.6293C18.5537 26.8667 18.2318 27 17.8962 27H5.96484C4.84635 26.9987 3.77402 26.5539 2.98312 25.763C2.19223 24.9721 1.74735 23.8997 1.74609 22.7812V4.21875C1.74735 3.10025 2.19223 2.02793 2.98312 1.23703C3.77402 0.446134 4.84635 0.00125619 5.96484 0L17.8962 0C18.2318 0 18.5537 0.133342 18.7911 0.370693C19.0284 0.608044 19.1618 0.92996 19.1618 1.26562C19.1618 1.60129 19.0284 1.92321 18.7911 2.16056C18.5537 2.39791 18.2318 2.53125 17.8962 2.53125H5.96484C5.51744 2.53174 5.0885 2.70969 4.77214 3.02605C4.45578 3.34241 4.27783 3.77135 4.27734 4.21875V22.7812C4.27782 23.2287 4.45576 23.6576 4.77213 23.974C5.08849 24.2903 5.51744 24.4683 5.96484 24.4688H17.8962C18.2318 24.4688 18.5537 24.6021 18.7911 24.8394C19.0284 25.0768 19.1618 25.3987 19.1618 25.7344ZM24.8863 12.6051L18.8718 6.59064C18.7548 6.47096 18.6152 6.37569 18.4611 6.31034C18.307 6.245 18.1414 6.21087 17.974 6.20995C17.8066 6.20902 17.6407 6.24131 17.4859 6.30494C17.331 6.36858 17.1904 6.4623 17.072 6.58067C16.9537 6.69905 16.86 6.83972 16.7963 6.99456C16.7327 7.1494 16.7005 7.31531 16.7014 7.48271C16.7023 7.6501 16.7365 7.81564 16.8019 7.96975C16.8672 8.12386 16.9625 8.26347 17.0822 8.38049L20.9359 12.2344H10.9724C10.6368 12.2344 10.3149 12.3677 10.0775 12.6051C9.84016 12.8424 9.70682 13.1643 9.70682 13.5C9.70682 13.8357 9.84016 14.1576 10.0775 14.3949C10.3149 14.6323 10.6368 14.7656 10.9724 14.7656H20.9358L17.082 18.6195C16.9639 18.7369 16.8702 18.8764 16.8062 19.0301C16.7422 19.1838 16.7091 19.3486 16.7089 19.5151C16.7086 19.6816 16.7413 19.8465 16.8049 20.0004C16.8685 20.1542 16.9618 20.294 17.0796 20.4117C17.1973 20.5295 17.3371 20.6228 17.4909 20.6864C17.6448 20.75 17.8097 20.7827 17.9762 20.7824C18.1427 20.7822 18.3075 20.7491 18.4612 20.6851C18.6149 20.6211 18.7544 20.5274 18.8718 20.4093L24.8863 14.395C25.1236 14.1576 25.2569 13.8357 25.2569 13.5C25.2569 13.1644 25.1236 12.8424 24.8863 12.6051Z" fill="currentColor"/>
    </symbol>

    <symbol viewBox="0 0 23 27" id="delete" xmlns="http://www.w3.org/2000/svg">
        <path fill-rule="evenodd" clip-rule="evenodd" d="M2.32323 8.03816V23.6171C2.32323 24.5379 2.66087 25.4027 3.25071 26.0231C3.83782 26.6453 4.65489 26.9985 5.51 27H17.4736C18.329 26.9985 19.1461 26.6453 19.7329 26.0231C20.3228 25.4027 20.6604 24.5379 20.6604 23.6171V8.03816C21.8329 7.72694 22.5927 6.59421 22.4358 5.39108C22.2787 4.18819 21.2539 3.28838 20.0407 3.28813H16.8033V2.49773C16.807 1.83306 16.5442 1.19482 16.0736 0.725271C15.6031 0.255974 14.9639 -0.00535089 14.2992 8.30812e-05H8.68443C8.01976 -0.00535089 7.38052 0.255974 6.90999 0.725271C6.43946 1.19482 6.17665 1.83306 6.18036 2.49773V3.28813H2.94295C1.72969 3.28838 0.704891 4.18819 0.5478 5.39108C0.390955 6.59421 1.15072 7.72694 2.32323 8.03816ZM17.4736 25.7354H5.51C4.42889 25.7354 3.58786 24.8067 3.58786 23.6171V8.09373H19.3958V23.6171C19.3958 24.8067 18.5547 25.7354 17.4736 25.7354ZM7.44499 2.49773C7.44079 2.16848 7.57022 1.85158 7.80388 1.61916C8.03729 1.38673 8.35493 1.25904 8.68443 1.26472H14.2992C14.6287 1.25904 14.9463 1.38673 15.1798 1.61916C15.4134 1.85134 15.5428 2.16848 15.5386 2.49773V3.28813H7.44499V2.49773ZM2.94295 4.55276H20.0407C20.6693 4.55276 21.1789 5.06232 21.1789 5.69093C21.1789 6.31954 20.6693 6.8291 20.0407 6.8291H2.94295C2.31433 6.8291 1.80478 6.31954 1.80478 5.69093C1.80478 5.06232 2.31433 4.55276 2.94295 4.55276ZM7.12891 10.4145C7.12891 10.0653 7.41197 9.78223 7.76122 9.78223C8.11048 9.78223 8.39354 10.0653 8.39354 10.4145V22.3653C8.39354 22.7143 8.11048 22.9976 7.76122 22.9976C7.41197 22.9976 7.12891 22.7143 7.12891 22.3653V10.4145ZM14.5938 10.4145C14.5938 10.0653 14.8768 9.78223 15.2261 9.78223C15.5753 9.78223 15.8584 10.0653 15.8584 10.4145V22.3653C15.8584 22.7143 15.5753 22.9976 15.2261 22.9976C14.8768 22.9976 14.5938 22.7143 14.5938 22.3653V10.4145ZM10.8594 10.4145C10.8594 10.0653 11.1424 9.78223 11.4917 9.78223C11.8409 9.78223 12.124 10.0653 12.124 10.4145V22.3653C12.124 22.7143 11.8409 22.9976 11.4917 22.9976C11.1424 22.9976 10.8594 22.7143 10.8594 22.3653V10.4145Z" fill="currentColor"/>
    </symbol>

    <symbol viewBox="0 0 27 27" id="edit" xmlns="http://www.w3.org/2000/svg">
        <path fill-rule="evenodd" clip-rule="evenodd" d="M23.149 0.625674C23.8403 -0.0640268 24.9596 -0.0640268 25.651 0.625674L26.4814 1.45608C27.1713 2.14744 27.1713 3.26672 26.4814 3.95808L25.7308 4.70859L22.3984 1.37619L23.149 0.625674ZM25.5178 17.1422C25.5178 16.7513 25.8346 16.4345 26.2255 16.4345C26.6164 16.4345 26.9332 16.7516 26.9332 17.1424V23.4258C26.931 25.3791 25.3481 26.9619 23.3948 26.9641H3.53835C1.58507 26.9619 0.00221147 25.3791 0 23.4258V4.98464C0.00221147 3.03136 1.58507 1.4485 3.53835 1.44629H9.82168C10.2126 1.44629 10.5293 1.76308 10.5293 2.15396C10.5293 2.54484 10.2126 2.86163 9.82168 2.86163H3.53835C2.36627 2.86301 1.41672 3.81256 1.41534 4.98464V23.4258C1.41672 24.5976 2.36627 25.5474 3.53835 25.5488H23.3948C24.5669 25.5474 25.5165 24.5976 25.5178 23.4258V17.1422ZM21.3992 2.37695L11.0664 12.71L14.3988 16.0424L24.7316 5.70936L21.3992 2.37695ZM9.37891 17.7285L13.0616 16.7085L10.3989 14.0459L9.37891 17.7285Z" fill="currentColor"/>
    </symbol>

    <symbol viewBox="0 0 27 27" id="wallet" xmlns="http://www.w3.org/2000/svg">
        <path fill-rule="evenodd" clip-rule="evenodd" d="M25.7724 9.81844V13.6132C26.4851 13.8674 26.9996 14.5421 26.9996 15.3411V19.0228C26.9996 19.8218 26.4851 20.4965 25.7724 20.7507V24.5455C25.7724 25.8992 24.6715 27 23.3178 27H2.45452C1.10079 27 0 25.8992 0 24.5455V9.81844C0 8.4647 1.10085 7.36392 2.45452 7.36392H4.57631L16.6573 0.330607C17.2194 0.00344792 17.8761 -0.0846842 18.5041 0.0831234C19.1351 0.252082 19.6625 0.658973 19.9891 1.22827L23.5132 7.3837C24.7743 7.48518 25.7724 8.53166 25.7724 9.81844ZM16.7388 7.36392H22.0872L20.7501 5.02853L16.7388 7.36392ZM14.2997 7.36392L20.1404 3.96352L19.5346 2.90554L11.877 7.36392H14.2997ZM18.1865 1.26842C17.8767 1.18569 17.5525 1.22884 17.275 1.39124L7.01547 7.36392H9.43801L18.9249 1.84053L18.9236 1.83829C18.7612 1.55485 18.4999 1.35229 18.1865 1.26842ZM23.3178 25.7727C23.9944 25.7727 24.5451 25.222 24.5451 24.5455V20.8637H20.8633C18.8331 20.8637 17.1816 19.2122 17.1816 17.182C17.1816 15.1517 18.8331 13.5002 20.8633 13.5002H24.5451V9.81844C24.5451 9.14192 23.9944 8.59121 23.3178 8.59121H2.45452C1.778 8.59121 1.22729 9.14192 1.22729 9.81844V24.5455C1.22729 25.222 1.778 25.7727 2.45452 25.7727H23.3178ZM25.1587 19.6365C25.4973 19.6365 25.7724 19.3614 25.7724 19.0228V15.3411C25.7724 15.0025 25.4973 14.7274 25.1587 14.7274H20.8633C19.5096 14.7274 18.4088 15.8283 18.4088 17.182C18.4088 18.5357 19.5096 19.6365 20.8633 19.6365H25.1587ZM19.6359 17.182C19.6359 16.5054 20.1867 15.9547 20.8632 15.9547C21.5398 15.9547 22.0905 16.5054 22.0904 17.182C22.0904 17.8585 21.5397 18.4092 20.8632 18.4092C20.1867 18.4092 19.6359 17.8585 19.6359 17.182Z" fill="currentColor"/>
    </symbol>

    <symbol viewBox="0 0 10 17" id="dollar" xmlns="http://www.w3.org/2000/svg">
        <path d="M5.22044 15.1976C4.23644 15.1976 3.37844 15.0296 2.64644 14.6936C1.91444 14.3456 1.24844 13.8236 0.648438 13.1276L2.43044 11.3096C2.82644 11.7896 3.26444 12.1676 3.74444 12.4436C4.22444 12.7076 4.77644 12.8396 5.40044 12.8396C5.98844 12.8396 6.44444 12.7316 6.76844 12.5156C7.09244 12.2876 7.25444 11.9696 7.25444 11.5616C7.25444 11.2136 7.14644 10.9316 6.93044 10.7156C6.72644 10.4996 6.45044 10.3136 6.10244 10.1576C5.75444 10.0016 5.37044 9.85163 4.95044 9.70763C4.53044 9.56363 4.11044 9.40163 3.69044 9.22163C3.28244 9.02963 2.90444 8.79563 2.55644 8.51963C2.20844 8.23163 1.92644 7.87763 1.71044 7.45763C1.49444 7.02563 1.38644 6.48563 1.38644 5.83763C1.38644 5.05763 1.57244 4.38563 1.94444 3.82163C2.32844 3.25763 2.85044 2.83163 3.51044 2.54363C4.17044 2.24363 4.92644 2.09363 5.77844 2.09363C6.60644 2.09363 7.38044 2.24963 8.10044 2.56163C8.82044 2.87363 9.40844 3.29963 9.86444 3.83963L8.08244 5.65763C7.71044 5.26163 7.33244 4.96163 6.94844 4.75763C6.57644 4.54163 6.16844 4.43363 5.72444 4.43363C5.20844 4.43363 4.80644 4.52963 4.51844 4.72163C4.23044 4.91363 4.08644 5.19563 4.08644 5.56763C4.08644 5.89163 4.19444 6.15563 4.41044 6.35963C4.62644 6.55163 4.90844 6.71963 5.25644 6.86363C5.61644 7.00763 6.00044 7.15163 6.40844 7.29563C6.82844 7.43963 7.24844 7.60763 7.66844 7.79963C8.08844 7.99163 8.47244 8.23763 8.82044 8.53763C9.18044 8.82563 9.46844 9.19763 9.68444 9.65363C9.90044 10.0976 10.0084 10.6496 10.0084 11.3096C10.0084 12.5216 9.58244 13.4756 8.73044 14.1716C7.89044 14.8556 6.72044 15.1976 5.22044 15.1976ZM4.62644 13.7936H6.60644V16.8176H4.62644V13.7936ZM6.60644 3.38963H4.62644V0.473633H6.60644V3.38963Z" fill="currentColor"/>
    </symbol>

    <symbol viewBox="0 0 22 18" id="email" xmlns="http://www.w3.org/2000/svg">
        <path fill-rule="evenodd" clip-rule="evenodd" d="M9.8765 10.4067L0.861523 4.39653C0.322094 4.0371 0 3.43554 0 2.78735C0 1.66995 0.908231 0.761762 2.02456 0.761719H19.9754C21.0918 0.761719 22 1.66991 22 2.78628C22 3.43554 21.6779 4.0371 21.1385 4.39653L12.1235 10.4067C11.7822 10.6342 11.3911 10.748 11 10.748C10.6089 10.748 10.2178 10.6343 9.8765 10.4067ZM11 12.0371C11.6555 12.0371 12.2913 11.8442 12.8386 11.4793L21.8532 5.46931C21.9033 5.43592 21.9521 5.40107 22 5.36523V15.2136C22 16.3225 21.1038 17.2388 19.9747 17.2388H2.02525C0.916309 17.2388 0 16.3427 0 15.2136V5.36528C0.0477383 5.40103 0.0964648 5.43579 0.14648 5.46913L9.16145 11.4793C9.70879 11.8442 10.3446 12.0371 11 12.0371Z" fill="currentColor"/>
    </symbol>

    <symbol viewBox="0 0 109 97" id="success" xmlns="http://www.w3.org/2000/svg">
        <path d="M42.326 96.9948C65.386 96.9948 84.0798 78.301 84.0798 55.2411C84.0798 32.1811 65.386 13.4873 42.326 13.4873C19.2661 13.4873 0.572266 32.1811 0.572266 55.2411C0.572266 78.301 19.2661 96.9948 42.326 96.9948Z" fill="#279A37"/>
        <path d="M42.8057 87.5137L42.2761 86.6113C34.1864 72.8282 12.6894 43.5783 12.4722 43.2846L12.1621 42.8633L19.486 35.6252L42.6697 51.8137C57.2667 32.8719 70.8847 19.8618 79.7676 12.2644C89.4849 3.95366 95.8102 0.127647 95.874 0.0909833L96.0178 0.00488281H108.441L107.255 1.06174C76.7343 28.2462 43.6534 86.024 43.3239 86.6044L42.8057 87.5137Z" fill="#CBFFD2"/>
    </symbol>

    <symbol viewBox="0 0 26 24" id="star" xmlns="http://www.w3.org/2000/svg">
        <path d="M13.2378 1.15881L15.4299 7.90552C15.6642 8.62656 16.3361 9.11475 17.0943 9.11475H24.1882C24.4303 9.11475 24.531 9.42465 24.3351 9.567L18.596 13.7367C17.9827 14.1823 17.726 14.9722 17.9603 15.6933L20.1524 22.44C20.2273 22.6703 19.9636 22.8618 19.7677 22.7195L14.0286 18.5498C13.4153 18.1042 12.5847 18.1042 11.9714 18.5498L6.23228 22.7195C6.03635 22.8618 5.77273 22.6703 5.84757 22.44L8.03971 15.6933C8.27399 14.9722 8.01734 14.1823 7.40399 13.7367L1.66489 9.567C1.46896 9.42465 1.56966 9.11475 1.81184 9.11475H8.90575C9.66389 9.11475 10.3358 8.62656 10.5701 7.90553L12.7622 1.15881C12.8371 0.928484 13.1629 0.928488 13.2378 1.15881Z" stroke-width="1.5"/>
    </symbol>

    <symbol viewBox="0 0 49 49" id="phone" xmlns="http://www.w3.org/2000/svg">
        <path fill-rule="evenodd" clip-rule="evenodd" d="M27.5443 29.6924L30.1237 28.1986C30.9279 27.7328 31.8713 27.7756 32.6303 28.312L36.9185 31.3434C37.9173 32.0496 38.1345 33.4208 37.4021 34.4009C36.6696 35.3814 35.9239 36.2481 34.7874 37.3591C34.3781 37.7594 33.8427 37.9166 33.2818 37.8005C23.7148 35.8195 13.1788 25.2834 11.1977 15.7165C11.0816 15.1556 11.2387 14.6203 11.6392 14.2107C12.75 13.0744 13.6169 12.3285 14.5973 11.596C15.5774 10.8637 16.9488 11.0807 17.655 12.0797L20.6861 16.368C21.2227 17.1269 21.2652 18.0704 20.7996 18.8747L19.3056 21.4538C21.4648 24.4511 24.5471 27.5332 27.5443 29.6924ZM24.498 0.0957031C11.02 0.0957031 0.09375 11.0219 0.09375 24.5C0.09375 37.9781 11.02 48.9043 24.498 48.9043C37.9763 48.9043 48.9023 37.9781 48.9023 24.5C48.9023 11.0219 37.9763 0.0957031 24.498 0.0957031ZM24.498 3.18339C12.7256 3.18339 3.18164 12.7275 3.18164 24.5C3.18164 36.2725 12.7255 45.8165 24.498 45.8165C36.2708 45.8165 45.8148 36.2726 45.8148 24.5C45.8148 12.7274 36.2707 3.18339 24.498 3.18339ZM24.498 4.97636C13.7153 4.97636 4.97461 13.7173 4.97461 24.5C4.97461 35.2827 13.7153 44.0235 24.498 44.0235C35.281 44.0235 44.0219 35.2827 44.0219 24.5C44.0219 13.7172 35.281 4.97636 24.498 4.97636Z" fill="currentColor"/>
    </symbol>

    <symbol viewBox="0 0 21 13" id="eye" xmlns="http://www.w3.org/2000/svg">
        <path d="M10.5 0.241211C6.48773 0.241211 2.84919 2.43636 0.164314 6.00187C-0.0547714 6.29399 -0.0547714 6.70209 0.164314 6.9942C2.84919 10.564 6.48773 12.7592 10.5 12.7592C14.5123 12.7592 18.1508 10.564 20.8357 6.9985C21.0548 6.70638 21.0548 6.29828 20.8357 6.00617C18.1508 2.43636 14.5123 0.241211 10.5 0.241211ZM10.7878 10.9077C8.12442 11.0752 5.92498 8.88006 6.09251 6.21237C6.22998 4.01292 8.01273 2.23016 10.2122 2.0927C12.8756 1.92516 15.075 4.12031 14.9075 6.788C14.7657 8.98316 12.983 10.7659 10.7878 10.9077ZM10.6546 8.87146C9.21985 8.96168 8.03421 7.78033 8.12872 6.34554C8.20175 5.1599 9.16401 4.20194 10.3496 4.12461C11.7844 4.0344 12.9701 5.21574 12.8756 6.65054C12.7983 7.84048 11.836 8.79844 10.6546 8.87146Z" fill="currentColor"/>
    </symbol>

    <symbol viewBox="0 0 28 28" id="zoom" xmlns="http://www.w3.org/2000/svg">
        <path fill-rule="evenodd" clip-rule="evenodd" d="M22.1651 11.5492C22.1651 13.8909 21.4048 16.0541 20.124 17.8091L26.5841 24.2731C27.222 24.9108 27.222 25.9465 26.5841 26.5842C25.9463 27.2219 24.9104 27.2219 24.2726 26.5842L17.8124 20.1202C16.0571 21.4059 13.8935 22.161 11.5513 22.161C5.6882 22.161 0.9375 17.4112 0.9375 11.5492C0.9375 5.68727 5.6882 0.9375 11.5513 0.9375C17.4144 0.9375 22.1651 5.68727 22.1651 11.5492ZM11.5513 18.8958C12.5163 18.8958 13.4718 18.7058 14.3633 18.3366C15.2548 17.9674 16.0648 17.4262 16.7471 16.744C17.4295 16.0618 17.9707 15.252 18.34 14.3606C18.7093 13.4693 18.8993 12.514 18.8993 11.5492C18.8993 10.5845 18.7093 9.62914 18.34 8.73781C17.9707 7.84648 17.4295 7.0366 16.7471 6.35441C16.0648 5.67222 15.2548 5.13107 14.3633 4.76187C13.4718 4.39267 12.5163 4.20265 11.5513 4.20265C10.5863 4.20265 9.63084 4.39267 8.73934 4.76187C7.84783 5.13107 7.03779 5.67222 6.35547 6.35441C5.67314 7.0366 5.13189 7.84648 4.76262 8.73781C4.39335 9.62914 4.20328 10.5845 4.20328 11.5492C4.20328 12.514 4.39335 13.4693 4.76262 14.3606C5.13189 15.252 5.67314 16.0618 6.35547 16.744C7.03779 17.4262 7.84783 17.9674 8.73934 18.3366C9.63084 18.7058 10.5863 18.8958 11.5513 18.8958ZM6.875 11.625C6.875 10.9692 7.40666 10.4375 8.0625 10.4375H10.4375V8.0625C10.4375 7.40666 10.9692 6.875 11.625 6.875C12.2808 6.875 12.8125 7.40666 12.8125 8.0625V10.4375H15.1875C15.8433 10.4375 16.375 10.9692 16.375 11.625C16.375 12.2808 15.8433 12.8125 15.1875 12.8125H12.8125V15.1875C12.8125 15.8433 12.2808 16.375 11.625 16.375C10.9692 16.375 10.4375 15.8433 10.4375 15.1875V12.8125H8.0625C7.40666 12.8125 6.875 12.2808 6.875 11.625Z" fill="currentColor"/>
    </symbol>

    <symbol viewBox="0 0 22 20" id="attach" xmlns="http://www.w3.org/2000/svg">
        <path d="M5.8223 19.6201C2.65498 19.6201 0.078125 17.0435 0.078125 13.8765C0.078125 12.3425 0.675345 10.9 1.76084 9.815L9.66667 1.90866C9.97139 1.60394 10.4649 1.60394 10.7696 1.90866C11.0743 2.21338 11.0743 2.70686 10.7696 3.01158L2.86377 10.9179C2.07311 11.7081 1.63812 12.759 1.63812 13.8765C1.63812 16.1832 3.51507 18.0601 5.8223 18.0601C6.93979 18.0601 7.99096 17.6249 8.78084 16.835L19.6179 5.99794C20.0953 5.52006 20.3581 4.88462 20.3581 4.2094C20.3581 2.81476 19.224 1.68012 17.8291 1.68012C17.1526 1.68012 16.5182 1.94298 16.0413 2.4206L5.01396 13.4472C4.84886 13.6126 4.75812 13.8317 4.75812 14.0657C4.75812 14.5478 5.15047 14.9401 5.6325 14.9401C5.86261 14.9401 6.08803 14.8468 6.25104 14.6843L14.3467 6.58866C14.6514 6.28394 15.1449 6.28394 15.4496 6.58866C15.7543 6.89338 15.7543 7.38686 15.4496 7.69158L7.35396 15.7872C6.90078 16.2404 6.27392 16.5001 5.6325 16.5001C4.29039 16.5001 3.19812 15.4081 3.19812 14.0657C3.19812 13.4152 3.45111 12.804 3.91105 12.3443L14.9376 1.31794C15.7093 0.545477 16.7361 0.120117 17.8291 0.120117C20.0838 0.120117 21.9181 1.95468 21.9181 4.2094C21.9181 5.30088 21.493 6.32762 20.7213 7.1006L9.88377 17.9379C8.79904 19.0226 7.3563 19.6201 5.8223 19.6201Z" fill="currentColor"/>
    </symbol>

    <symbol viewBox="0 0 20 20" id="send" xmlns="http://www.w3.org/2000/svg">
        <path d="M18.9353 11.0728C19.1344 10.9731 19.3018 10.8199 19.4187 10.6304C19.5357 10.441 19.5977 10.2227 19.5977 10C19.5977 9.77737 19.5357 9.5591 19.4187 9.36964C19.3018 9.18018 19.1344 9.027 18.9353 8.92723L2.13534 0.527232C1.92703 0.423005 1.6929 0.381654 1.46149 0.408223C1.23008 0.434793 1.01141 0.528135 0.832151 0.676862C0.652891 0.825589 0.52079 1.02327 0.451961 1.2458C0.383133 1.46832 0.380552 1.70607 0.444538 1.93003L2.15934 7.93003C2.23106 8.1808 2.38254 8.40138 2.59084 8.55836C2.79914 8.71534 3.05291 8.80018 3.31374 8.80003L8.79894 8.80003C9.1172 8.80003 9.42242 8.92646 9.64747 9.15151C9.87251 9.37655 9.99894 9.68177 9.99894 10C9.99894 10.3183 9.87251 10.6235 9.64747 10.8486C9.42242 11.0736 9.1172 11.2 8.79894 11.2L3.31374 11.2C3.05291 11.1999 2.79914 11.2847 2.59084 11.4417C2.38254 11.5987 2.23106 11.8193 2.15934 12.07L0.445737 18.07C0.381625 18.2939 0.38405 18.5316 0.452716 18.7542C0.521381 18.9767 0.653319 19.1745 0.832442 19.3233C1.01156 19.4722 1.23012 19.5657 1.46147 19.5924C1.69282 19.6192 1.92696 19.5781 2.13534 19.474L18.9353 11.074L18.9353 11.0728Z" fill="currentColor"/>
    </symbol>


    <symbol viewBox="" id="id" xmlns="http://www.w3.org/2000/svg">
        
    </symbol>
</svg>