<?xml version="1.0" encoding="UTF-8"?>

<svg version="1.1" xmlns="http://www.w3.org/2000/svg" xmlns:xlink="http://www.w3.org/1999/xlink">

    <symbol viewBox="0 0 35 23" id="gb" xmlns="http://www.w3.org/2000/svg">
        <path d="M32.3788 0.0345459H2.62124C1.17353 0.0345459 0 1.20807 0 2.65579V20.3444C0 21.792 1.17353 22.9656 2.62124 22.9656H32.3788C33.8264 22.9656 35 21.7921 35 20.3444V2.65579C35 1.20807 33.8265 0.0345459 32.3788 0.0345459Z" fill="#41479B"/>
        <path d="M34.9637 2.2224C34.7571 0.981064 33.6787 0.0344238 32.3788 0.0344238H31.6967L20.5172 7.35893V0.0344921H14.4828V7.359L3.30326 0.0344921H2.62124C1.32125 0.0344921 0.242881 0.981064 0.0362988 2.22247L9.59144 8.48282H0V14.5173H9.59144L0.0362988 20.7775C0.242881 22.0189 1.32125 22.9655 2.62124 22.9655H3.30326L14.4828 15.641V22.9655H20.5172V15.641L31.6967 22.9655H32.3788C33.6787 22.9655 34.7571 22.0189 34.9637 20.7775L25.4086 14.5172H35V8.48269H25.4086L34.9637 2.2224Z" fill="#F5F5F5"/>
        <path d="M19.3104 0.0345459H15.6896V9.68969H0V13.3104H15.6896V22.9656H19.3104V13.3104H35V9.68969H19.3104V0.0345459Z" fill="#FF4B55"/>
        <path d="M1.69515 22.7966L14.4498 14.5173H12.2331L0.630859 22.0486C0.914756 22.38 1.27959 22.6396 1.69515 22.7966Z" fill="#FF4B55"/>
        <path d="M23.6796 14.5173H21.4629L33.8165 22.5362C34.1622 22.3092 34.4507 22.0025 34.6565 21.6424L23.6796 14.5173Z" fill="#FF4B55"/>
        <path d="M0.277344 1.4837L11.0597 8.48281H13.2764L1.05842 0.551758C0.730361 0.795938 0.461914 1.11518 0.277344 1.4837Z" fill="#FF4B55"/>
        <path d="M22.7343 8.48213L34.3578 0.936963C34.0708 0.606719 33.7031 0.348594 33.2846 0.19458L20.5176 8.48213H22.7343Z" fill="#FF4B55"/>
    </symbol>

    <symbol viewBox="0 0 35 23" id="albania" xmlns="http://www.w3.org/2000/svg">
        <g clip-path="url(#clip0_293_6518)">
        <path d="M35 -0.16687H0V23.1667H35V-0.16687Z" fill="#D80027"/>
        <path d="M24.0947 8.49222H19.8689C20.1298 8.21905 20.2904 7.8493 20.2904 7.44167C20.2904 6.60119 19.6091 5.91992 18.7686 5.91992C18.2392 5.91992 17.7731 6.19042 17.5005 6.60064C17.2279 6.19049 16.7618 5.91992 16.2323 5.91992C15.3919 5.91992 14.7106 6.60119 14.7106 7.44167C14.7106 7.8493 14.8712 8.21905 15.132 8.49222H10.9062C10.9062 9.61283 11.8823 10.5211 13.0028 10.5211H12.9353C12.9353 11.6417 13.8437 12.5502 14.9643 12.5502C14.9643 12.9131 15.06 13.2534 15.227 13.5479L13.544 15.2309L14.8352 16.5221L16.6668 14.6905C16.7386 14.7168 16.8128 14.7378 16.8895 14.7522L15.7827 17.2512L17.5005 19.1084L19.2183 17.2512L18.1115 14.7522C18.1882 14.7379 18.2624 14.7168 18.3342 14.6905L20.1658 16.5221L21.457 15.2309L19.7739 13.5479C19.9409 13.2533 20.0365 12.9131 20.0365 12.5502C21.1571 12.5502 22.0656 11.6417 22.0656 10.5211H21.998C23.1187 10.5212 24.0947 9.61283 24.0947 8.49222Z" fill="black"/>
        </g>
        <defs>
        <clipPath id="clip0_293_6518">
        <rect width="35" height="23" rx="2" fill="white"/>
        </clipPath>
        </defs>
    </symbol>

    <symbol viewBox="0 0 35 23" id="andorra" xmlns="http://www.w3.org/2000/svg">
        <g clip-path="url(#clip0_293_6906)">
        <path d="M35 -0.16687H0V23.1667H35V-0.16687Z" fill="#FFDA44"/>
        <path d="M11.6664 -0.16687H0V23.1667H11.6664V-0.16687Z" fill="#0052B4"/>
        <path d="M34.9994 -0.16687H23.333V23.1667H34.9994V-0.16687Z" fill="#D80027"/>
        <path d="M17.5 15.5575C17.5 13.6958 17.5 11.4995 17.5 11.4995H20.5435V13.0213C20.5435 13.2857 20.0362 14.2543 18.7843 15.0503C18.31 15.3518 17.8192 15.4488 17.5 15.5575Z" fill="#D80027"/>
        <path d="M17.4996 8.45618H14.4561V11.4997H17.4996V8.45618Z" fill="#D80027"/>
        <path d="M19.0221 7.4417C19.0221 6.88143 18.5678 6.42725 18.0076 6.42725C17.8226 6.42725 17.6497 6.47756 17.5003 6.56403C17.351 6.47749 17.1781 6.42725 16.993 6.42725C16.4328 6.42725 15.9786 6.88143 15.9786 7.4417H13.4424V12.5141C13.4424 14.4025 14.9421 15.4945 16.118 16.0606C16.0299 16.2108 15.9786 16.3853 15.9786 16.5721C15.9786 17.1324 16.4328 17.5866 16.993 17.5866C17.1781 17.5866 17.351 17.5363 17.5003 17.4498C17.6497 17.5363 17.8226 17.5866 18.0076 17.5866C18.5678 17.5866 19.0221 17.1324 19.0221 16.5721C19.0221 16.3853 18.9707 16.2109 18.8826 16.0606C20.0586 15.4945 21.5583 14.4024 21.5583 12.5141V7.4417H19.0221ZM20.0365 12.5142C20.0365 12.7786 20.0365 13.583 18.7846 14.3789C18.3105 14.6805 17.8195 14.8759 17.5003 14.9847C17.1812 14.8759 16.6903 14.6805 16.2161 14.3789C14.9641 13.583 14.9641 12.7786 14.9641 12.5142V8.96358H20.0366V12.5142L20.0365 12.5142Z" fill="#FF9811"/>
        </g>
        <defs>
        <clipPath id="clip0_293_6906">
        <rect width="35" height="23" rx="2" fill="white"/>
        </clipPath>
        </defs>
    </symbol>

    <symbol viewBox="0 0 35 23" id="austria" xmlns="http://www.w3.org/2000/svg">
        <g clip-path="url(#clip0_293_4791)">
        <path d="M35 -0.166382H0V23.1664H35V-0.166382Z" fill="#F0F0F0"/>
        <path d="M35 -0.166382H0V7.61121H35V-0.166382Z" fill="#D80027"/>
        <path d="M35 15.3889H0V23.1665H35V15.3889Z" fill="#D80027"/>
        </g>
        <defs>
        <clipPath id="clip0_293_4791">
        <rect width="35" height="23" rx="2" fill="white"/>
        </clipPath>
        </defs>
    </symbol>

    <symbol viewBox="0 0 35 23" id="belgium" xmlns="http://www.w3.org/2000/svg">
        <g clip-path="url(#clip0_293_8094)">
        <path d="M35 -0.16687H0V23.166H35V-0.16687Z" fill="#FFDA44"/>
        <path d="M11.6664 -0.16687H0V23.1667H11.6664V-0.16687Z" fill="black"/>
        <path d="M35.0004 -0.16687H23.334V23.1667H35.0004V-0.16687Z" fill="#D80027"/>
        </g>
        <defs>
        <clipPath id="clip0_293_8094">
        <rect width="35" height="23" rx="2" fill="white"/>
        </clipPath>
        </defs>
    </symbol>
    
    <symbol viewBox="0 0 35 23" id="bosnia" xmlns="http://www.w3.org/2000/svg">
        <path d="M35 -0.166626H0V23.167H35V-0.166626Z" fill="#0052B4"/>
        <path d="M6.8291 -0.166992H30.1624V23.1664" fill="#FFDA44"/>
        <path d="M2.49902 0.880053L3.51368 0.141294L4.52998 0.879165L4.18962 -0.16687H2.83836L2.49902 0.880053Z" fill="#F0F0F0"/>
        <path d="M6.03848 1.08427L5.64999 -0.110107L5.26226 1.08427L4.00684 1.08509L5.02313 1.8231L4.63615 3.01672L5.65081 2.27803L6.66704 3.01597L6.27849 1.82145L7.2939 1.08352L6.03848 1.08427Z" fill="#F0F0F0"/>
        <path d="M8.17436 3.221L7.7858 2.02649L7.398 3.221L6.14258 3.22175L7.15888 3.95969L6.77189 5.15338L7.78662 4.41462L8.80285 5.15263L8.41423 3.95812L9.42978 3.22025L8.17436 3.221Z" fill="#F0F0F0"/>
        <path d="M10.3119 5.35765L9.92343 4.16321L9.53563 5.35765L8.28027 5.3584L9.2965 6.09641L8.90952 7.29003L9.92418 6.55134L10.9404 7.28928L10.5519 6.09477L11.5674 5.3569L10.3119 5.35765Z" fill="#F0F0F0"/>
        <path d="M12.4477 7.49432L12.0592 6.2998L11.6715 7.49432L10.416 7.49507L11.4322 8.23301L11.0453 9.4267L12.06 8.68794L13.0762 9.42595L12.6877 8.2315L13.7031 7.49356L12.4477 7.49432Z" fill="#F0F0F0"/>
        <path d="M14.5844 9.63102L14.1959 8.43665L13.8082 9.63102L12.5527 9.63184L13.569 10.3698L13.1821 11.5635L14.1966 10.8248L15.2129 11.5627L14.8244 10.3682L15.8399 9.63027L14.5844 9.63102Z" fill="#F0F0F0"/>
        <path d="M16.7212 11.7677L16.3327 10.5732L15.9449 11.7677L14.6895 11.7685L15.7058 12.5064L15.3188 13.7001L16.3335 12.9614L17.3497 13.6992L16.9611 12.5049L17.9766 11.767L16.7212 11.7677Z" fill="#F0F0F0"/>
        <path d="M18.8578 13.9044L18.4694 12.71L18.0816 13.9044L16.8262 13.9052L17.8425 14.6432L17.4555 15.8368L18.4701 15.0981L19.4864 15.836L19.0979 14.6415L20.1132 13.9037L18.8578 13.9044Z" fill="#F0F0F0"/>
        <path d="M20.9946 16.0412L20.6061 14.8467L20.2182 16.0412L18.9629 16.0419L19.9791 16.7799L19.5921 17.9736L20.6069 17.2348L21.6231 17.9728L21.2345 16.7783L22.25 16.0404L20.9946 16.0412Z" fill="#F0F0F0"/>
        <path d="M23.1313 18.1778L22.7428 16.9834L22.355 18.1778L21.0996 18.1786L22.1158 18.9165L21.7289 20.1102L22.7435 19.3715L23.7597 20.1094L23.3713 18.915L24.3867 18.177L23.1313 18.1778Z" fill="#F0F0F0"/>
        <path d="M25.268 20.3144L24.8796 19.12L24.4918 20.3144L23.2363 20.3153L24.2526 21.0531L23.8656 22.2469L24.8803 21.5081L25.8965 22.2461L25.508 21.0516L26.5235 20.3137L25.268 20.3144Z" fill="#F0F0F0"/>
        <path d="M27.0162 21.2567L26.6285 22.4511L25.373 22.4519L26.357 23.1665H27.6748L28.6602 22.4503L27.4047 22.4511L27.0162 21.2567Z" fill="#F0F0F0"/>
    </symbol>

    <symbol viewBox="0 0 35 23" id="bulgaria" xmlns="http://www.w3.org/2000/svg">
        <g clip-path="url(#clip0_293_6082)">
        <path d="M35 -0.166382H0V23.1664H35V-0.166382Z" fill="#496E2D"/>
        <path d="M35 -0.166382H0V7.61121H35V-0.166382Z" fill="#F0F0F0"/>
        <path d="M35 15.3888H0V23.1664H35V15.3888Z" fill="#D80027"/>
        </g>
        <defs>
        <clipPath id="clip0_293_6082">
        <rect width="35" height="23" rx="2" fill="white"/>
        </clipPath>
        </defs>
    </symbol>

    <symbol viewBox="0 0 35 23" id="croatia" xmlns="http://www.w3.org/2000/svg">
        <g clip-path="url(#clip0_293_6101)">
        <path d="M35 -0.166382H0V23.1664H35V-0.166382Z" fill="#F0F0F0"/>
        <path d="M35 -0.166382H0V7.61121H35V-0.166382Z" fill="#D80027"/>
        <path d="M35 15.3888H0V23.1664H35V15.3888Z" fill="#0052B4"/>
        <path d="M20.5437 7.94935H18.5146L18.8529 5.41308L20.2055 4.39856L21.5581 5.41308V7.44206L20.5437 7.94935Z" fill="#338AF3"/>
        <path d="M14.4568 7.94935H16.4859L16.1476 5.41308L14.795 4.39856L13.4424 5.41308V7.44206L14.4568 7.94935Z" fill="#338AF3"/>
        <path d="M18.8529 7.94935H16.1475V5.41308L17.5002 4.39856L18.8529 5.41308V7.94935Z" fill="#0052B4"/>
        <path d="M13.4424 7.44202V13.0217C13.4424 14.3503 14.0842 15.5318 15.074 16.2725L15.7841 16.0948L16.6802 16.9963C16.9452 17.0509 17.2194 17.0797 17.5003 17.0797C17.7796 17.0797 18.0524 17.0513 18.3161 16.9973L19.339 16.1456L19.9265 16.271C20.916 15.5304 21.5581 14.35 21.5581 13.0218V7.44209L13.4424 7.44202Z" fill="#F0F0F0"/>
        <path d="M15.0656 7.44226H13.4424V9.06545H15.0656V7.44226Z" fill="#D80027"/>
        <path d="M18.3117 7.44226H16.6885V9.06545H18.3117V7.44226Z" fill="#D80027"/>
        <path d="M21.5578 7.44226H19.9346V9.06545H21.5578V7.44226Z" fill="#D80027"/>
        <path d="M16.6886 9.06531H15.0654V10.6885H16.6886V9.06531Z" fill="#D80027"/>
        <path d="M19.9347 9.06531H18.3115V10.6885H19.9347V9.06531Z" fill="#D80027"/>
        <path d="M15.0656 10.6881H13.4424V12.3113H15.0656V10.6881Z" fill="#D80027"/>
        <path d="M16.6886 12.311H15.0654V13.9342H16.6886V12.311Z" fill="#D80027"/>
        <path d="M18.3117 10.6881H16.6885V12.3113H18.3117V10.6881Z" fill="#D80027"/>
        <path d="M21.5578 10.6881H19.9346V12.3113H21.5578V10.6881Z" fill="#D80027"/>
        <path d="M19.9347 12.311H18.3115V13.9342H19.9347V12.311Z" fill="#D80027"/>
        <path d="M18.3117 13.9348H16.6885V15.558H18.3117V13.9348Z" fill="#D80027"/>
        <path d="M15.0653 13.9344H13.5469C13.6862 14.5378 13.9599 15.09 14.3355 15.5576H15.0653V13.9344Z" fill="#D80027"/>
        <path d="M19.9346 15.5576H20.6644C21.0399 15.0899 21.3137 14.5378 21.453 13.9344H19.9346V15.5576Z" fill="#D80027"/>
        <path d="M15.0654 15.5576V16.2659C15.5375 16.6211 16.0892 16.8759 16.6886 16.998V15.5576H15.0654Z" fill="#D80027"/>
        <path d="M18.3115 15.5576V16.998C18.911 16.8759 19.4626 16.6211 19.9347 16.2659V15.5576H18.3115Z" fill="#D80027"/>
        </g>
        <defs>
        <clipPath id="clip0_293_6101">
        <rect width="35" height="23" rx="2" fill="white"/>
        </clipPath>
        </defs>
    </symbol>

    <symbol viewBox="0 0 35 23" id="czech-republic" xmlns="http://www.w3.org/2000/svg">
        <g clip-path="url(#clip0_293_7938)">
        <path d="M35 -0.166382H0V23.1664H35V-0.166382Z" fill="#0052B4"/>
        <path d="M35 11.5V23.1664H0L14.7099 11.5H35Z" fill="#D80027"/>
        <path d="M35 -0.166382V11.5H14.7099L0 -0.166382H35Z" fill="#F0F0F0"/>
        </g>
        <defs>
        <clipPath id="clip0_293_7938">
        <rect width="35" height="23" rx="2" fill="white"/>
        </clipPath>
        </defs>
    </symbol>

    <symbol viewBox="0 0 35 23" id="denmark" xmlns="http://www.w3.org/2000/svg">
        <g clip-path="url(#clip0_293_7688)">
        <path d="M35 -0.166748H0V23.1668H35V-0.166748Z" fill="#D80027"/>
        <path d="M13.125 -0.16687H8.75V9.31225H0V13.6873H8.75V23.1664H13.125V13.6873H35V9.31225H13.125V-0.16687Z" fill="#F0F0F0"/>
        </g>
        <defs>
        <clipPath id="clip0_293_7688">
        <rect width="35" height="23" rx="2" fill="white"/>
        </clipPath>
        </defs>
    </symbol>

    <symbol viewBox="0 0 35 23" id="estonia" xmlns="http://www.w3.org/2000/svg">
        <g clip-path="url(#clip0_293_3205)">
        <path d="M35 -0.166443H0V23.1664H35V-0.166443Z" fill="black"/>
        <path d="M35 -0.166443H0V7.61115H35V-0.166443Z" fill="#0052B4"/>
        <path d="M35 15.3889H0V23.1664H35V15.3889Z" fill="#F0F0F0"/>
        </g>
        <defs>
        <clipPath id="clip0_293_3205">
        <rect width="35" height="23" rx="2" fill="white"/>
        </clipPath>
        </defs>
    </symbol>

    <symbol viewBox="0 0 35 23" id="finland" xmlns="http://www.w3.org/2000/svg">
        <g clip-path="url(#clip0_293_8132)">
        <path d="M35 -0.166626H0V23.167H35V-0.166626Z" fill="#F0F0F0"/>
        <path d="M35 10.0416V12.958H12.5543V23.1666H9.63717V12.958H0V10.0416H9.63717V-0.166992H12.5543V10.0416H35Z" fill="#2E52B2"/>
        </g>
        <defs>
        <clipPath id="clip0_293_8132">
        <rect width="35" height="23" rx="2" fill="white"/>
        </clipPath>
        </defs>
    </symbol>

    <symbol viewBox="0 0 35 23" id="france" xmlns="http://www.w3.org/2000/svg">
        <g clip-path="url(#clip0_293_7815)">
        <path d="M35 -0.16687H0V23.1667H35V-0.16687Z" fill="#F0F0F0"/>
        <path d="M11.6664 -0.16687H0V23.1667H11.6664V-0.16687Z" fill="#0052B4"/>
        <path d="M35.0004 -0.16687H23.334V23.1667H35.0004V-0.16687Z" fill="#D80027"/>
        </g>
        <defs>
        <clipPath id="clip0_293_7815">
        <rect width="35" height="23" rx="2" fill="white"/>
        </clipPath>
        </defs>
    </symbol>

    <symbol viewBox="0 0 35 23" id="germany" xmlns="http://www.w3.org/2000/svg">
        <g clip-path="url(#clip0_293_8075)">
        <path d="M35 -0.16687H0V23.1667H35V-0.16687Z" fill="#D80027"/>
        <path d="M35 -0.16687H0V7.61072H35V-0.16687Z" fill="black"/>
        <path d="M35 15.3884H0V23.166H35V15.3884Z" fill="#FFDA44"/>
        </g>
        <defs>
        <clipPath id="clip0_293_8075">
        <rect width="35" height="23" rx="2" fill="white"/>
        </clipPath>
        </defs>
    </symbol>

    <symbol viewBox="0 0 35 23" id="greece" xmlns="http://www.w3.org/2000/svg">
        <g clip-path="url(#clip0_293_7706)">
        <path d="M35 -0.166626H0V23.1664H35V-0.166626Z" fill="#F0F0F0"/>
        <path d="M35 -0.166626H0V2.74998H35V-0.166626Z" fill="#338AF3"/>
        <path d="M35 5.66711H0V8.58372H35V5.66711Z" fill="#338AF3"/>
        <path d="M35 11.5002H0V14.4169H35V11.5002Z" fill="#338AF3"/>
        <path d="M35 17.3334H0V20.25H35V17.3334Z" fill="#338AF3"/>
        <path d="M12.9345 -0.166626H0V11.5002H12.9345V-0.166626Z" fill="#338AF3"/>
        <path d="M12.9345 4.37073H0V6.96308H12.9345V4.37073Z" fill="#F0F0F0"/>
        <path d="M7.76325 -0.166626H5.1709V11.5002H7.76325V-0.166626Z" fill="#F0F0F0"/>
        </g>
        <defs>
        <clipPath id="clip0_293_7706">
        <rect width="35" height="23" rx="2" fill="white"/>
        </clipPath>
        </defs>
    </symbol>

    <symbol viewBox="0 0 35 23" id="hungary" xmlns="http://www.w3.org/2000/svg">
        <g clip-path="url(#clip0_293_8113)">
        <path d="M35 -0.166382H0V23.1664H35V-0.166382Z" fill="#F0F0F0"/>
        <path d="M35 -0.166382H0V7.61121H35V-0.166382Z" fill="#D80027"/>
        <path d="M35 15.3888H0V23.1664H35V15.3888Z" fill="#6DA544"/>
        </g>
        <defs>
        <clipPath id="clip0_293_8113">
        <rect width="35" height="23" rx="2" fill="white"/>
        </clipPath>
        </defs>
    </symbol>

    <symbol viewBox="0 0 35 23" id="iceland" xmlns="http://www.w3.org/2000/svg">
        <g clip-path="url(#clip0_293_8385)">
        <path d="M35 0H0V24.0003H35V0Z" fill="#0052B4"/>
        <path d="M35 14.8043H13.8219V24H12.5543H9.63717H8.36958V14.8043H0V13.4998V10.5V9.19536H8.36958V-0.000244141H9.63717H12.5543H13.8219V9.19536H35V10.5V13.4998V14.8043Z" fill="#F0F0F0"/>
        <path d="M35 10.5V13.4998H12.5543V24H9.63717V13.4998H0V10.5H9.63717V-0.000244141H12.5543V10.5H35Z" fill="#D80027"/>
        </g>
        <defs>
        <clipPath id="clip0_293_8385">
        <rect width="35" height="24" rx="2" fill="white"/>
        </clipPath>
        </defs>
    </symbol>

    <symbol viewBox="0 0 35 23" id="ireland" xmlns="http://www.w3.org/2000/svg">
        <g clip-path="url(#clip0_293_7732)">
        <path d="M35 -0.16687H0V23.166H35V-0.16687Z" fill="#F0F0F0"/>
        <path d="M11.6664 -0.16687H0V23.1667H11.6664V-0.16687Z" fill="#6DA544"/>
        <path d="M35.0004 -0.16687H23.334V23.1667H35.0004V-0.16687Z" fill="#FF9811"/>
        </g>
        <defs>
        <clipPath id="clip0_293_7732">
        <rect width="35" height="23" rx="2" fill="white"/>
        </clipPath>
        </defs>
    </symbol>

    <symbol viewBox="0 0 35 23" id="italy" xmlns="http://www.w3.org/2000/svg">
        <g clip-path="url(#clip0_293_9293)">
        <path d="M23.3334 -0.000244141H11.6666H0V23.9997H11.6666H23.3334H35V-0.000244141H23.3334Z" fill="#F0F0F0"/>
        <path d="M11.6664 0H0V24.0003H11.6664V0Z" fill="#6DA544"/>
        <path d="M35.0004 0H23.334V24.0003H35.0004V0Z" fill="#D80027"/>
        </g>
        <defs>
        <clipPath id="clip0_293_9293">
        <rect width="35" height="24" rx="2" fill="white"/>
        </clipPath>
        </defs>
    </symbol>

    <symbol viewBox="0 0 35 23" id="latvia" xmlns="http://www.w3.org/2000/svg">
        <g clip-path="url(#clip0_293_8579)">
        <path d="M35 -0.166382H0V23.1664H35V-0.166382Z" fill="#F0F0F0"/>
        <path d="M35 -0.166382H0V7.61121H35V-0.166382Z" fill="#A2001D"/>
        <path d="M35 15.3889H0V23.1664H35V15.3889Z" fill="#A2001D"/>
        </g>
        <defs>
        <clipPath id="clip0_293_8579">
        <rect width="35" height="23" rx="2" fill="white"/>
        </clipPath>
        </defs>
    </symbol>

    <symbol viewBox="0 0 35 23" id="liechtenstein" xmlns="http://www.w3.org/2000/svg">
        <g clip-path="url(#clip0_293_4155)">
        <path d="M35 -0.166199H0V23.1666H35V-0.166199Z" fill="#D80027"/>
        <path d="M35 -0.166626V11.2282L0 11.512V-0.166626H35Z" fill="#0052B4"/>
        <path d="M14.457 7.94941C14.457 7.10893 13.7757 6.42766 12.9352 6.42766C12.5454 6.42766 12.19 6.57436 11.9208 6.8154V5.92037H12.4281V4.90591H11.9208V4.39862H10.9063V4.90591H10.399V5.92037H10.9063V6.8154C10.6371 6.57436 10.2817 6.42766 9.89187 6.42766C9.05139 6.42766 8.37012 7.10893 8.37012 7.94941C8.37012 8.39997 8.5661 8.80472 8.87741 9.08343V9.97845H13.9499V9.08343C14.261 8.80472 14.457 8.40004 14.457 7.94941Z" fill="#FFDA44"/>
        </g>
        <defs>
        <clipPath id="clip0_293_4155">
        <rect width="35" height="23" rx="2" fill="white"/>
        </clipPath>
        </defs>
    </symbol>

    <symbol viewBox="0 0 35 23" id="lithuania" xmlns="http://www.w3.org/2000/svg">
        <g clip-path="url(#clip0_293_8735)">
        <path d="M35 -0.348267H0V23.3482H35V-0.348267Z" fill="#6DA544"/>
        <path d="M35 -0.348267H0V7.55053H35V-0.348267Z" fill="#FFDA44"/>
        <path d="M35 15.4495H0V23.3483H35V15.4495Z" fill="#D80027"/>
        </g>
        <defs>
        <clipPath id="clip0_293_8735">
        <rect width="35" height="23" rx="2" fill="white"/>
        </clipPath>
        </defs>
    </symbol>

    <symbol viewBox="0 0 35 23" id="luxembourg" xmlns="http://www.w3.org/2000/svg">
        <g clip-path="url(#clip0_293_8798)">
        <path d="M35 -0.166382H0V23.1664H35V-0.166382Z" fill="#F0F0F0"/>
        <path d="M35 -0.166382H0V7.61121H35V-0.166382Z" fill="#D80027"/>
        <path d="M35 15.3888H0V23.1664H35V15.3888Z" fill="#338AF3"/>
        </g>
        <defs>
        <clipPath id="clip0_293_8798">
        <rect width="35" height="23" rx="2" fill="white"/>
        </clipPath>
        </defs>
    </symbol>

    <symbol viewBox="0 0 35 23" id="macedonia" xmlns="http://www.w3.org/2000/svg">
        <g clip-path="url(#clip0_293_3983)">
        <path d="M35 -0.166748H0V23.1668H35V-0.166748Z" fill="#FFDA44"/>
        <path d="M26.2415 23.1663L17.5 11.2461L19.3339 23.1663H26.2415Z" fill="#D80027"/>
        <path d="M9.13086 -0.16687L17.5004 11.2461L15.7446 -0.16687H9.13086Z" fill="#D80027"/>
        <path d="M15.6663 23.1663L17.5003 11.2461L8.75879 23.1663H15.6663Z" fill="#D80027"/>
        <path d="M0 -0.16687V8.55373L17.5 11.2461L1.93683 -0.16687H0Z" fill="#D80027"/>
        <path d="M0 23.1663H1.24496L17.5 11.2461L0 13.9384V23.1663Z" fill="#D80027"/>
        <path d="M17.5 11.2461L35 8.55373V-0.16687H33.0633L17.5 11.2461Z" fill="#D80027"/>
        <path d="M19.2559 -0.16687L17.5 11.2461L25.8695 -0.16687H19.2559Z" fill="#D80027"/>
        <path d="M35 23.1663V13.9384L17.5 11.2461L33.755 23.1663H35Z" fill="#D80027"/>
        <path d="M17.5001 15.3042C19.7412 15.3042 21.5579 13.4875 21.5579 11.2465C21.5579 9.00543 19.7412 7.18872 17.5001 7.18872C15.2591 7.18872 13.4424 9.00543 13.4424 11.2465C13.4424 13.4875 15.2591 15.3042 17.5001 15.3042Z" fill="#D80027"/>
        <path d="M17.4996 14.2899C19.1804 14.2899 20.543 12.9273 20.543 11.2464C20.543 9.5655 19.1804 8.20288 17.4996 8.20288C15.8187 8.20288 14.4561 9.5655 14.4561 11.2464C14.4561 12.9273 15.8187 14.2899 17.4996 14.2899Z" fill="#FFDA44"/>
        </g>
        <defs>
        <clipPath id="clip0_293_3983">
        <rect width="35" height="23" rx="2" fill="white"/>
        </clipPath>
        </defs>
    </symbol>

    <symbol viewBox="0 0 35 23" id="malta" xmlns="http://www.w3.org/2000/svg">
        <g clip-path="url(#clip0_293_9026)">
        <path d="M35 -0.16687H0V23.166H35V-0.16687Z" fill="#F0F0F0"/>
        <path d="M35 -0.16687H17.5V23.1667H35V-0.16687Z" fill="#D80027"/>
        <path d="M14.235 3.4795V2.02112H12.7767V3.4795H11.3184V4.93774H12.7767V6.39612H14.235V4.93774H15.6934V3.4795H14.235Z" fill="#ACABB1"/>
        </g>
        <defs>
        <clipPath id="clip0_293_9026">
        <rect width="35" height="23" rx="2" fill="white"/>
        </clipPath>
        </defs>
    </symbol>

    <symbol viewBox="0 0 35 24" id="monaco" xmlns="http://www.w3.org/2000/svg">
        <g clip-path="url(#clip0_293_8346)">
        <path d="M35 0.000488281H0V24H35V0.000488281Z" fill="#F0F0F0"/>
        <path d="M35 0V11.7204L0 12.0123V0H35Z" fill="#D80027"/>
        </g>
        <defs>
        <clipPath id="clip0_293_8346">
        <rect width="35" height="24" rx="2" fill="white"/>
        </clipPath>
        </defs>
    </symbol>

    <symbol viewBox="0 0 35 23" id="montenegro" xmlns="http://www.w3.org/2000/svg">
        <g clip-path="url(#clip0_293_3815)">
        <path d="M35 -0.166382H0V23.1664H35V-0.166382Z" fill="#FFDA44"/>
        <path d="M35 1.86206H0V21.1379H35V1.86206Z" fill="#A2001D"/>
        <path d="M14.9639 8.45651H20.0363V6.42754L19.0218 6.93477L17.5001 5.41309L15.9783 6.93477L14.9639 6.42754V8.45651Z" fill="#FFDA44"/>
        <path d="M22.0649 11.5001H19.5296C19.6291 11.3281 19.6868 11.1291 19.6868 10.9161C19.6868 10.2695 19.1627 9.74548 18.5163 9.74548C18.0696 9.74548 17.6817 9.99575 17.4843 10.3635C17.2869 9.99575 16.899 9.74548 16.4523 9.74548C15.8059 9.74548 15.2818 10.2695 15.2818 10.9161C15.2818 11.1289 15.3396 11.328 15.439 11.5001H12.9346C12.9346 12.2759 13.6103 12.9048 14.386 12.9048H14.3392C14.3392 13.5412 14.7624 14.0784 15.3427 14.2511L14.2026 15.3911L15.2786 16.4672L16.805 14.9408C16.8648 14.9627 16.9267 14.9802 16.9905 14.9922L16.0682 17.0747C16.5102 17.2544 16.9932 17.3542 17.4997 17.3542C18.0063 17.3542 18.4892 17.2544 18.9313 17.0747L18.009 14.9922C18.0729 14.9802 18.1347 14.9627 18.1945 14.9408L19.7209 16.4672L20.7969 15.3911L19.6568 14.2511C20.2371 14.0784 20.6603 13.5411 20.6603 12.9048H20.6135C21.3892 12.9048 22.0649 12.2759 22.0649 11.5001Z" fill="#FFDA44"/>
        <path d="M17.5001 12.2609L15.8516 13.0218V14.5435L17.5001 15.558L19.1487 14.5435V13.0218L17.5001 12.2609Z" fill="#6DA544"/>
        <path d="M19.1484 11.5H15.8516V13.529H19.1484V11.5Z" fill="#0052B4"/>
        </g>
        <defs>
        <clipPath id="clip0_293_3815">
        <rect width="35" height="23" rx="2" fill="white"/>
        </clipPath>
        </defs>
    </symbol>

    <symbol viewBox="0 0 35 23" id="netherlands" xmlns="http://www.w3.org/2000/svg">
        <g clip-path="url(#clip0_293_4913)">
        <path d="M35 -0.166382H0V23.1664H35V-0.166382Z" fill="#F0F0F0"/>
        <path d="M35 -0.166382H0V7.61121H35V-0.166382Z" fill="#A2001D"/>
        <path d="M35 15.3888H0V23.1664H35V15.3888Z" fill="#0052B4"/>
        </g>
        <defs>
        <clipPath id="clip0_293_4913">
        <rect width="35" height="23" rx="2" fill="white"/>
        </clipPath>
        </defs>
    </symbol>

    <symbol viewBox="0 0 35 23" id="norway" xmlns="http://www.w3.org/2000/svg">
        <g clip-path="url(#clip0_293_8002)">
        <path d="M35 -0.166626H0V23.167H35V-0.166626Z" fill="#D80027"/>
        <path d="M35 14.2263H13.8219V23.1666H12.5543H9.63717H8.36958V14.2263H0V12.958V10.0416V8.77318H8.36958V-0.166992H9.63717H12.5543H13.8219V8.77318H35V10.0416V12.958V14.2263Z" fill="#F0F0F0"/>
        <path d="M35 10.0416V12.958H12.5543V23.1666H9.63717V12.958H0V10.0416H9.63717V-0.166992H12.5543V10.0416H35Z" fill="#2E52B2"/>
        </g>
        <defs>
        <clipPath id="clip0_293_8002">
        <rect width="35" height="23" rx="2" fill="white"/>
        </clipPath>
        </defs>
    </symbol>

    <symbol viewBox="0 0 35 23" id="poland" xmlns="http://www.w3.org/2000/svg">
        <g clip-path="url(#clip0_293_7027)">
        <path d="M35 -0.166443H0V23.1664H35V-0.166443Z" fill="#F0F0F0"/>
        <path d="M35 -0.166443H0V11.5H35V-0.166443Z" fill="#F0F0F0"/>
        <path d="M35 11.5H0V23.1664H35V11.5Z" fill="#D80027"/>
        </g>
        <defs>
        <clipPath id="clip0_293_7027">
        <rect width="35" height="23" rx="2" fill="white"/>
        </clipPath>
        </defs>
    </symbol>

    <symbol viewBox="0 0 35 23" id="portugal" xmlns="http://www.w3.org/2000/svg">
        <g clip-path="url(#clip0_293_5386)">
        <path d="M35 -0.166443H0V23.1664H35V-0.166443Z" fill="#D80027"/>
        <path d="M13.4423 -0.166443V11.8804V23.1664H0V-0.166443H13.4423Z" fill="#6DA544"/>
        <path d="M13.4424 15.875C15.8586 15.875 17.8174 13.9162 17.8174 11.5C17.8174 9.08375 15.8586 7.125 13.4424 7.125C11.0261 7.125 9.06738 9.08375 9.06738 11.5C9.06738 13.9162 11.0261 15.875 13.4424 15.875Z" fill="#FFDA44"/>
        <path d="M10.9814 9.3125V12.0469C10.9814 13.4061 12.0833 14.5079 13.4424 14.5079C14.8015 14.5079 15.9033 13.4061 15.9033 12.0469V9.3125H10.9814Z" fill="#D80027"/>
        <path d="M13.4424 12.8672C12.99 12.8672 12.6221 12.4992 12.6221 12.0469V10.9531H14.2628V12.0469C14.2627 12.4991 13.8946 12.8672 13.4424 12.8672Z" fill="#F0F0F0"/>
        </g>
        <defs>
        <clipPath id="clip0_293_5386">
        <rect width="35" height="23" rx="2" fill="white"/>
        </clipPath>
        </defs>
    </symbol>

    <symbol viewBox="0 0 35 23" id="romania" xmlns="http://www.w3.org/2000/svg">
        <g clip-path="url(#clip0_293_8170)">
        <path d="M35 -0.16687H0V23.166H35V-0.16687Z" fill="#FFDA44"/>
        <path d="M11.6664 -0.16687H0V23.1667H11.6664V-0.16687Z" fill="#0052B4"/>
        <path d="M35.0004 -0.16687H23.334V23.1667H35.0004V-0.16687Z" fill="#D80027"/>
        </g>
        <defs>
        <clipPath id="clip0_293_8170">
        <rect width="35" height="23" rx="2" fill="white"/>
        </clipPath>
        </defs>
    </symbol>

    <symbol viewBox="0 0 35 23" id="san-marino" xmlns="http://www.w3.org/2000/svg">
        <g clip-path="url(#clip0_293_4196)">
        <path d="M35 -0.16626H0V23.1666H35V-0.16626Z" fill="#338AF3"/>
        <path d="M35 -0.166626V11.2282L0 11.512V-0.166626H35Z" fill="#F0F0F0"/>
        <path d="M22.1306 7.88367L17.4996 12.5146L12.8687 7.88367C12.2699 8.77268 11.9199 9.84271 11.9199 10.9929V12.5146C11.9199 14.958 13.4988 17.0395 15.6898 17.7928C15.3974 18.366 15.4467 19.0813 15.8752 19.616C16.4444 19.1599 17.0335 18.6877 17.5335 18.2872C18.0334 18.6877 18.6226 19.16 19.1917 19.616C19.6253 19.075 19.671 18.3491 19.367 17.7725C21.5281 17.0027 23.0795 14.9366 23.0795 12.5146V10.9929C23.0793 9.84264 22.7294 8.77275 22.1306 7.88367Z" fill="#6DA544"/>
        <path d="M17.5003 16.5727C15.2628 16.5727 13.4424 14.7522 13.4424 12.5147V10.993C13.4424 8.75535 15.2628 6.93494 17.5003 6.93494C19.7379 6.93494 21.5583 8.75535 21.5583 10.9929V12.5146C21.5583 14.7522 19.7379 16.5727 17.5003 16.5727Z" fill="#FFDA44"/>
        <path d="M20.0363 12.5146V10.9929C20.0363 9.59437 18.8986 8.45667 17.5001 8.45667C16.1016 8.45667 14.9639 9.59437 14.9639 10.9929V12.5146L17.5001 13.0219L20.0363 12.5146Z" fill="#338AF3"/>
        <path d="M14.9639 12.5146C14.9639 13.9131 16.1016 15.0509 17.5001 15.0509C18.8986 15.0509 20.0363 13.9131 20.0363 12.5146H14.9639Z" fill="#6DA544"/>
        <path d="M20.544 6.93495C20.544 6.09447 19.8627 5.4132 19.0222 5.4132C18.6324 5.4132 18.277 5.5599 18.0078 5.80093V4.9059H18.515V3.89145H18.0078V3.38416H16.9933V3.89145H16.486V4.9059H16.9933V5.80093C16.724 5.5599 16.3686 5.4132 15.9788 5.4132C15.1383 5.4132 14.457 6.09447 14.457 6.93495C14.457 7.3855 14.653 7.79026 14.9643 8.06896V8.96399H20.0368V8.06896C20.348 7.79026 20.544 7.38557 20.544 6.93495Z" fill="#FFDA44"/>
        </g>
        <defs>
        <clipPath id="clip0_293_4196">
        <rect width="35" height="23" rx="2" fill="white"/>
        </clipPath>
        </defs>
    </symbol>

    <symbol viewBox="0 0 35 23" id="slovakia" xmlns="http://www.w3.org/2000/svg">
        <g clip-path="url(#clip0_293_8286)">
        <path d="M35 -0.166382H0V23.1664H35V-0.166382Z" fill="#F0F0F0"/>
        <path d="M35 7.44226H0V15.5577H35V7.44226Z" fill="#0052B4"/>
        <path d="M35 15.5577H0V23.1664H35V15.5577Z" fill="#D80027"/>
        <path d="M8.85059 6.42761V12.2475C8.85059 15.558 13.1755 16.5723 13.1755 16.5723C13.1755 16.5723 17.5002 15.5579 17.5002 12.2475V6.42761H8.85059Z" fill="#F0F0F0"/>
        <path d="M9.98926 6.59827V12.1997C9.98926 12.5738 10.0723 12.927 10.2369 13.2582C11.87 13.2582 14.3111 13.2582 16.1138 13.2582C16.2784 12.9271 16.3614 12.5738 16.3614 12.1997V6.59827H9.98926Z" fill="#D80027"/>
        <path d="M15.1283 10.5038H13.6637V9.52741H14.6401V8.55103H13.6637V7.57458H12.6873V8.55103H11.711V9.52741H12.6873V10.5038H11.2227V11.4802H12.6873V12.4566H13.6637V11.4802H15.1283V10.5038Z" fill="#F0F0F0"/>
        <path d="M11.5689 14.6212C12.1981 15.0165 12.8445 15.2462 13.1755 15.3483C13.5065 15.2461 14.1529 15.0166 14.7821 14.6212C15.4166 14.2225 15.8615 13.7663 16.114 13.2582C15.8355 13.0611 15.4956 12.9449 15.1284 12.9449C14.9947 12.9449 14.8648 12.9607 14.74 12.9898C14.4754 12.3885 13.8747 11.9685 13.1757 11.9685C12.4766 11.9685 11.8759 12.3885 11.6113 12.9898C11.4864 12.9607 11.3565 12.9449 11.2229 12.9449C10.8557 12.9449 10.5158 13.0612 10.2373 13.2582C10.4896 13.7663 10.9344 14.2225 11.5689 14.6212Z" fill="#0052B4"/>
        </g>
        <defs>
        <clipPath id="clip0_293_8286">
        <rect width="35" height="23" rx="2" fill="white"/>
        </clipPath>
        </defs>
    </symbol>

    <symbol viewBox="0 0 35 23" id="slovenia" xmlns="http://www.w3.org/2000/svg">
        <g clip-path="url(#clip0_293_9319)">
        <path d="M35 -0.166382H0V23.1664H35V-0.166382Z" fill="#F0F0F0"/>
        <path d="M35 7.61121H0V15.3888H35V7.61121Z" fill="#0052B4"/>
        <path d="M35 15.3888H0V23.1664H35V15.3888Z" fill="#D80027"/>
        <path d="M15.969 7.44217V8.45642C15.969 10.7862 12.9255 11.4999 12.9255 11.4999C12.9255 11.4999 9.88198 10.7862 9.88198 8.45642V7.44217L9.87207 4.4215L15.959 4.40332L15.969 7.44217Z" fill="#F0F0F0"/>
        <path d="M15.969 7.44217V8.45642C15.969 10.7862 12.9255 11.4999 12.9255 11.4999C12.9255 11.4999 9.88198 10.7862 9.88198 8.45642V7.44217L9.87207 4.4215L15.959 4.40332L15.969 7.44217Z" fill="#0052B4"/>
        <path d="M15.9688 7.44207V8.45632C15.9688 10.7861 12.9253 11.4998 12.9253 11.4998C12.9253 11.4998 9.88184 10.7861 9.88184 8.45632V7.44207L10.8968 8.45632L12.9253 6.93457L14.9546 8.45632L15.9688 7.44207Z" fill="#F0F0F0"/>
        </g>
        <defs>
        <clipPath id="clip0_293_9319">
        <rect width="35" height="23" rx="2" fill="white"/>
        </clipPath>
        </defs>
    </symbol>

    <symbol viewBox="0 0 35 23" id="spain" xmlns="http://www.w3.org/2000/svg">
        <g clip-path="url(#clip0_293_8559)">
        <path d="M35 -0.16687H0V23.1667H35V-0.16687Z" fill="#FFDA44"/>
        <path d="M35 -0.16687H0V7.61072H35V-0.16687Z" fill="#D80027"/>
        <path d="M35 15.3884H0V23.166H35V15.3884Z" fill="#D80027"/>
        </g>
        <defs>
        <clipPath id="clip0_293_8559">
        <rect width="35" height="23" rx="2" fill="white"/>
        </clipPath>
        </defs>
    </symbol>

    <symbol viewBox="0 0 35 23" id="sweden" xmlns="http://www.w3.org/2000/svg">
        <g clip-path="url(#clip0_293_7670)">
        <path d="M35 -0.166748H0V23.1668H35V-0.166748Z" fill="#0052B4"/>
        <path d="M13.125 -0.16687H8.75V9.31225H0V13.6873H8.75V23.1664H13.125V13.6873H35V9.31225H13.125V-0.16687Z" fill="#FFDA44"/>
        </g>
        <defs>
        <clipPath id="clip0_293_7670">
        <rect width="35" height="23" rx="2" fill="white"/>
        </clipPath>
        </defs>
    </symbol>

    <symbol viewBox="0 0 35 23" id="switzerland" xmlns="http://www.w3.org/2000/svg">
        <g clip-path="url(#clip0_293_7338)">
        <path d="M35 -0.166382H0V23.1664H35V-0.166382Z" fill="#D80027"/>
        <path d="M24.348 9.21746H19.7828V4.65222H15.2176V9.21746H10.6523V13.7826H15.2176V18.3479H19.7828V13.7826H24.348V9.21746Z" fill="#F0F0F0"/>
        </g>
        <defs>
        <clipPath id="clip0_293_7338">
        <rect width="35" height="23" rx="2" fill="white"/>
        </clipPath>
        </defs>
    </symbol>



    <symbol viewBox="0 0 35 23" id="id" xmlns="http://www.w3.org/2000/svg">
        
    </symbol>
</svg>